<svg width="1920" height="747" viewBox="0 0 1920 747" fill="none" xmlns="http://www.w3.org/2000/svg">
<g clip-path="url(#clip0_2284_328)">
<path d="M311.699 67.7002V641H443.199V631.7V598.6H364.399C364.099 598.6 363.899 598.6 363.599 598.6C360.899 598.8 358.499 597.9 356.699 596.2C355.699 595.2 353.999 592.9 354.099 589.3V588.3C353.999 566 353.999 381 353.999 358.7C353.999 329.6 353.999 299.5 353.799 269.9C353.499 235.6 353.599 200.8 353.599 167.1C353.599 152.1 353.699 137.1 353.699 122V121.2C353.299 116.8 355.199 114.2 356.299 113.1C357.499 112 359.999 110.1 364.099 110.7H364.899H442.699V67.7002H311.699Z" stroke="#2A599E" stroke-width="3" stroke-miterlimit="10"/>
<path d="M1476.8 642.4H1496.1H1608.1V267.2H1608.3V69.8001C1605.3 69.8001 1602.2 69.8001 1599.2 69.8001H1593.8H1476.8C1476.8 84.0001 1476.8 98.2001 1476.8 112.4H1555.2C1555.6 112.4 1555.9 112.4 1556.3 112.4C1558.9 112.3 1561.4 113.2 1563.1 114.9C1564.9 116.7 1565.7 119.1 1565.6 121.8V589.9C1565.6 592.2 1565.6 595.3 1563.1 597.8C1560.6 600.3 1557.6 600.3 1555.7 600.3H1554.1H1478C1477.5 600.3 1477.1 600.3 1476.6 600.3C1476.8 614.4 1476.8 628.4 1476.8 642.4Z" stroke="#2A599E" stroke-width="3" stroke-miterlimit="10"/>
<path d="M1643.2 226C1637.2 226 1632.4 221.2 1632.4 215.2C1632.4 209.2 1637.2 204.4 1643.2 204.4C1649.2 204.4 1654 209.2 1654 215.2C1654 221.2 1649.2 226 1643.2 226Z" fill="#B4CCEB"/>
<path d="M1643.2 287.4C1637.2 287.4 1632.4 282.6 1632.4 276.6C1632.4 270.6 1637.2 265.8 1643.2 265.8C1649.2 265.8 1654 270.6 1654 276.6C1654 282.6 1649.2 287.4 1643.2 287.4Z" fill="#B4CCEB"/>
<path d="M1643.2 348.8C1637.2 348.8 1632.4 344 1632.4 338C1632.4 332 1637.2 327.2 1643.2 327.2C1649.2 327.2 1654 332 1654 338C1654 344 1649.2 348.8 1643.2 348.8Z" fill="#B4CCEB"/>
<path d="M1643.2 410.2C1637.2 410.2 1632.4 405.4 1632.4 399.4C1632.4 393.4 1637.2 388.6 1643.2 388.6C1649.2 388.6 1654 393.4 1654 399.4C1654 405.3 1649.2 410.2 1643.2 410.2Z" fill="#B4CCEB"/>
<path d="M1643.2 471.5C1637.2 471.5 1632.4 466.7 1632.4 460.7C1632.4 454.7 1637.2 449.9 1643.2 449.9C1649.2 449.9 1654 454.7 1654 460.7C1654 466.7 1649.2 471.5 1643.2 471.5Z" fill="#B4CCEB"/>
<path d="M1643.2 532.9C1637.2 532.9 1632.4 528.1 1632.4 522.1C1632.4 516.1 1637.2 511.3 1643.2 511.3C1649.2 511.3 1654 516.1 1654 522.1C1654 528.1 1649.2 532.9 1643.2 532.9Z" fill="#B4CCEB"/>
<path d="M1576.1 226C1570.1 226 1565.3 221.2 1565.3 215.2C1565.3 209.2 1570.1 204.4 1576.1 204.4C1582.1 204.4 1586.9 209.2 1586.9 215.2C1586.9 221.2 1582 226 1576.1 226Z" fill="#B4CCEB"/>
<path d="M1576.1 287.4C1570.1 287.4 1565.3 282.6 1565.3 276.6C1565.3 270.6 1570.1 265.8 1576.1 265.8C1582.1 265.8 1586.9 270.6 1586.9 276.6C1586.9 282.6 1582 287.4 1576.1 287.4Z" fill="#B4CCEB"/>
<path d="M1576.1 348.8C1570.1 348.8 1565.3 344 1565.3 338C1565.3 332 1570.1 327.2 1576.1 327.2C1582.1 327.2 1586.9 332 1586.9 338C1586.9 344 1582 348.8 1576.1 348.8Z" fill="#B4CCEB"/>
<path d="M1576.1 410.2C1570.1 410.2 1565.3 405.4 1565.3 399.4C1565.3 393.4 1570.1 388.6 1576.1 388.6C1582.1 388.6 1586.9 393.4 1586.9 399.4C1586.9 405.3 1582 410.2 1576.1 410.2Z" fill="#B4CCEB"/>
<path d="M1576.1 471.5C1570.1 471.5 1565.3 466.7 1565.3 460.7C1565.3 454.7 1570.1 449.9 1576.1 449.9C1582.1 449.9 1586.9 454.7 1586.9 460.7C1586.9 466.7 1582 471.5 1576.1 471.5Z" fill="#B4CCEB"/>
<path d="M1576.1 532.9C1570.1 532.9 1565.3 528.1 1565.3 522.1C1565.3 516.1 1570.1 511.3 1576.1 511.3C1582.1 511.3 1586.9 516.1 1586.9 522.1C1586.9 528.1 1582 532.9 1576.1 532.9Z" fill="#B4CCEB"/>
<path d="M1509 226C1503 226 1498.2 221.2 1498.2 215.2C1498.2 209.2 1503 204.4 1509 204.4C1515 204.4 1519.8 209.2 1519.8 215.2C1519.7 221.2 1514.9 226 1509 226Z" fill="#B4CCEB"/>
<path d="M1509 287.4C1503 287.4 1498.2 282.6 1498.2 276.6C1498.2 270.6 1503 265.8 1509 265.8C1515 265.8 1519.8 270.6 1519.8 276.6C1519.7 282.6 1514.9 287.4 1509 287.4Z" fill="#B4CCEB"/>
<path d="M1509 348.8C1503 348.8 1498.2 344 1498.2 338C1498.2 332 1503 327.2 1509 327.2C1515 327.2 1519.8 332 1519.8 338C1519.7 344 1514.9 348.8 1509 348.8Z" fill="#B4CCEB"/>
<path d="M1509 410.2C1503 410.2 1498.2 405.4 1498.2 399.4C1498.2 393.4 1503 388.6 1509 388.6C1515 388.6 1519.8 393.4 1519.8 399.4C1519.7 405.3 1514.9 410.2 1509 410.2Z" fill="#B4CCEB"/>
<path d="M1509 471.5C1503 471.5 1498.2 466.7 1498.2 460.7C1498.2 454.7 1503 449.9 1509 449.9C1515 449.9 1519.8 454.7 1519.8 460.7C1519.7 466.7 1514.9 471.5 1509 471.5Z" fill="#B4CCEB"/>
<path d="M1509 532.9C1503 532.9 1498.2 528.1 1498.2 522.1C1498.2 516.1 1503 511.3 1509 511.3C1515 511.3 1519.8 516.1 1519.8 522.1C1519.7 528.1 1514.9 532.9 1509 532.9Z" fill="#B4CCEB"/>
<path d="M1441.8 226C1435.8 226 1431 221.2 1431 215.2C1431 209.2 1435.8 204.4 1441.8 204.4C1447.8 204.4 1452.6 209.2 1452.6 215.2C1452.6 221.2 1447.8 226 1441.8 226Z" fill="#B4CCEB"/>
<path d="M1441.8 287.4C1435.8 287.4 1431 282.6 1431 276.6C1431 270.6 1435.8 265.8 1441.8 265.8C1447.8 265.8 1452.6 270.6 1452.6 276.6C1452.6 282.6 1447.8 287.4 1441.8 287.4Z" fill="#B4CCEB"/>
<path d="M1441.8 348.8C1435.8 348.8 1431 344 1431 338C1431 332 1435.8 327.2 1441.8 327.2C1447.8 327.2 1452.6 332 1452.6 338C1452.6 344 1447.8 348.8 1441.8 348.8Z" fill="#B4CCEB"/>
<path d="M1441.8 410.2C1435.8 410.2 1431 405.4 1431 399.4C1431 393.4 1435.8 388.6 1441.8 388.6C1447.8 388.6 1452.6 393.4 1452.6 399.4C1452.6 405.3 1447.8 410.2 1441.8 410.2Z" fill="#B4CCEB"/>
<path d="M1441.8 471.5C1435.8 471.5 1431 466.7 1431 460.7C1431 454.7 1435.8 449.9 1441.8 449.9C1447.8 449.9 1452.6 454.7 1452.6 460.7C1452.6 466.7 1447.8 471.5 1441.8 471.5Z" fill="#B4CCEB"/>
<path d="M1441.8 532.9C1435.8 532.9 1431 528.1 1431 522.1C1431 516.1 1435.8 511.3 1441.8 511.3C1447.8 511.3 1452.6 516.1 1452.6 522.1C1452.6 528.1 1447.8 532.9 1441.8 532.9Z" fill="#B4CCEB"/>
<path d="M794.9 519.6H789.5L787.3 533.3H780.7L782.9 519.6H775.5V513.5H783.9L785.4 504.7H778V498.6H786.4L788.7 484.7H795.3L793 498.6H798.4L800.7 484.7H807.3L805 498.6H812.7V504.7H804L802.5 513.5H810.1V519.6H801.5L799.3 533.3H792.7L794.9 519.6ZM790.6 513.5H796L797.5 504.7H792L790.6 513.5Z" fill="#B4CCEB"/>
<path d="M686.001 731C683.101 731 680.601 730 678.501 727.8C676.401 725.7 675.401 723.2 675.401 720.3V680.1H551.401C548.501 680.1 546.001 679.1 543.901 677C541.801 674.9 540.801 672.4 540.801 669.5V627.8C540.801 621 542.501 615.3 545.901 610.9L663.601 462.4C666.001 459.5 668.101 457.6 670.101 456.7C672.101 455.8 674.801 455.3 678.201 455.3H737.701C740.601 455.3 743.101 456.4 745.201 458.5C747.301 460.6 748.301 463.1 748.301 466V617.2H782.201C785.101 617.2 787.601 618.3 789.701 620.4C791.801 622.5 792.901 625 792.901 627.9V669.6C792.901 672.5 791.801 675 789.701 677.1C787.601 679.2 785.101 680.2 782.201 680.2H748.301V720.4C748.301 723.3 747.201 725.8 745.201 727.9C743.101 730 740.601 731.1 737.701 731.1H686.001V731ZM677.401 617.2V544.7L619.901 617.2H677.401Z" fill="#B4CCEB"/>
<path d="M976.402 331.4C996.102 331.4 1013 334.3 1027.2 340.1C1041.4 345.9 1053.1 353.6 1062.4 363.3C1071.7 373 1078.7 384.4 1083.3 397.4C1087.9 410.4 1090.6 424 1091.4 438.2C1091.9 449.5 1092.2 461.3 1092.2 473.6C1092.2 485.9 1091.9 497.5 1091.4 508.3C1090.6 522.5 1087.9 536.1 1083.3 549.1C1078.7 562.1 1071.7 573.5 1062.4 583.2C1053.1 592.9 1041.3 600.7 1027.2 606.4C1013 612.2 996.102 615.1 976.402 615.1C956.702 615.1 939.802 612.2 925.602 606.4C911.402 600.6 899.702 592.9 890.402 583.2C881.102 573.5 874.102 562.1 869.502 549.1C864.902 536.1 862.202 522.5 861.402 508.3C860.902 497.5 860.602 486 860.602 473.6C860.602 461.3 860.902 449.4 861.402 438.2C862.202 424 864.902 410.4 869.502 397.4C874.102 384.4 881.002 373.1 890.402 363.3C899.702 353.6 911.502 345.8 925.602 340.1C939.802 334.3 956.702 331.4 976.402 331.4ZM1018.5 506.2C1019.5 483.9 1019.5 461.8 1018.5 440C1018 433.4 1017 427.4 1015.5 421.9C1014.1 416.4 1011.8 411.6 1008.6 407.5C1005.4 403.4 1001.2 400.2 996.002 397.9C990.702 395.5 984.202 394.4 976.302 394.4C968.402 394.4 961.902 395.6 956.602 397.9C951.302 400.3 947.102 403.5 944.002 407.5C940.802 411.6 938.502 416.4 936.902 421.9C935.302 427.4 934.402 433.5 934.102 440C932.802 461.8 932.802 483.8 934.102 506.2C934.402 512.8 935.202 518.8 936.702 524.3C938.102 529.8 940.502 534.6 943.802 538.7C947.102 542.8 951.302 546 956.602 548.3C961.802 550.7 968.402 551.8 976.302 551.8C984.202 551.8 990.702 550.6 996.002 548.3C1001.2 545.9 1005.5 542.7 1008.8 538.7C1012.1 534.6 1014.4 529.8 1015.9 524.3C1017.4 518.8 1018.3 512.8 1018.5 506.2Z" fill="#B4CCEB"/>
<path d="M1282.6 425C1279.7 425 1277.2 424 1275.1 421.8C1273 419.7 1271.9 417.2 1271.9 414.3V374.1H1147.9C1145 374.1 1142.5 373.1 1140.4 371C1138.3 368.9 1137.2 366.4 1137.2 363.5V321.8C1137.2 315 1138.9 309.3 1142.3 304.9L1260 156.4C1262.4 153.5 1264.5 151.6 1266.5 150.7C1268.5 149.8 1271.2 149.3 1274.6 149.3H1334.1C1337 149.3 1339.5 150.4 1341.6 152.5C1343.7 154.6 1344.7 157.1 1344.7 160V311.2H1378.6C1381.5 311.2 1384 312.3 1386.1 314.4C1388.2 316.5 1389.3 319 1389.3 321.9V363.6C1389.3 366.5 1388.2 369 1386.1 371.1C1384 373.2 1381.5 374.2 1378.6 374.2H1344.7V414.4C1344.7 417.3 1343.6 419.8 1341.6 421.9C1339.5 424 1337 425.1 1334.1 425.1H1282.6V425ZM1273.9 311.2V238.7L1216.4 311.2H1273.9Z" fill="#B4CCEB"/>
<path d="M744.7 698.3H693.1C689.8 698.3 686.9 697.1 684.6 694.7C682.2 692.3 681 689.5 681 686.2V647.5H558.5C555.2 647.5 552.3 646.3 550 643.9C547.6 641.5 546.4 638.7 546.4 635.4V593.7C546.4 586.6 548.2 580.6 551.8 575.9L669.6 427.4C672.1 424.3 674.4 422.3 676.6 421.3C678.8 420.3 681.7 419.8 685.3 419.8H744.8C748.1 419.8 751 421 753.3 423.4C755.7 425.8 756.9 428.7 756.9 431.9V581.6H789.3C792.6 581.6 795.5 582.8 797.8 585.2C800.2 587.6 801.4 590.5 801.4 593.7V635.4C801.4 638.7 800.2 641.6 797.8 643.9C795.4 646.3 792.5 647.5 789.3 647.5H756.9V686.2C756.9 689.5 755.7 692.4 753.3 694.7C750.9 697 748 698.3 744.7 698.3ZM685.3 422.6C682.1 422.6 679.6 423 677.9 423.8C676.1 424.6 674.1 426.4 671.9 429.1L554.1 577.6C550.9 581.8 549.3 587.1 549.3 593.6V635.3C549.3 637.8 550.2 639.9 552 641.7C553.8 643.5 555.9 644.4 558.4 644.4H682.4C683.2 644.4 683.9 645.1 683.9 645.9V686.1C683.9 688.6 684.8 690.7 686.6 692.5C688.4 694.3 690.5 695.2 693 695.2H744.6C747.1 695.2 749.2 694.3 751 692.5C752.8 690.7 753.7 688.6 753.7 686.1V646C753.7 645.2 754.4 644.5 755.2 644.5H789.1C791.6 644.5 793.7 643.6 795.5 641.8C797.3 640 798.2 637.9 798.2 635.4V593.7C798.2 591.2 797.3 589.1 795.5 587.3C793.7 585.5 791.6 584.6 789.1 584.6H755.2C754.4 584.6 753.7 583.9 753.7 583.1V431.7C753.7 429.2 752.8 427.1 751 425.3C749.2 423.5 747.1 422.6 744.6 422.6H685.3ZM684.5 584.5H627C626.4 584.5 625.9 584.2 625.6 583.7C625.3 583.2 625.4 582.6 625.8 582.1L683.3 509.6C683.7 509.1 684.4 508.9 685 509.1C685.6 509.3 686 509.9 686 510.5V583C686 583.8 685.3 584.5 684.5 584.5ZM630.1 581.5H683V514.8L630.1 581.5Z" fill="#2A599E"/>
<path d="M955.601 626.1C935.801 626.1 918.501 623.1 904.201 617.3C889.901 611.5 877.901 603.5 868.401 593.7C859.001 583.9 851.801 572.2 847.201 559.1C842.601 546 839.801 532.2 839.001 517.9C838.501 507.2 838.201 495.6 838.201 483.2C838.201 470.8 838.501 458.9 839.001 447.7C839.801 433.4 842.501 419.6 847.201 406.5C851.801 393.4 859.001 381.7 868.401 371.9C877.801 362.1 889.801 354.1 904.201 348.3C918.501 342.5 935.801 339.5 955.601 339.5C975.401 339.5 992.701 342.5 1007 348.3C1021.3 354.1 1033.3 362.1 1042.8 371.9C1052.2 381.7 1059.4 393.4 1064 406.5C1068.6 419.6 1071.4 433.4 1072.2 447.7C1072.7 459 1073 471 1073 483.2C1073 495.5 1072.7 507.1 1072.2 517.9C1071.4 532.1 1068.7 546 1064 559.1C1059.4 572.2 1052.2 583.9 1042.8 593.7C1033.4 603.5 1021.3 611.5 1007 617.3C992.701 623.2 975.401 626.1 955.601 626.1ZM955.601 342.6C936.201 342.6 919.301 345.5 905.401 351.2C891.501 356.9 879.801 364.6 870.701 374.1C861.601 383.6 854.701 394.9 850.201 407.6C845.701 420.4 843.001 434 842.201 447.9C841.701 459 841.401 470.9 841.401 483.3C841.401 495.6 841.701 507.3 842.201 517.9C843.001 531.9 845.701 545.4 850.201 558.2C854.701 570.9 861.601 582.2 870.701 591.7C879.801 601.2 891.501 608.9 905.401 614.6C919.301 620.3 936.201 623.2 955.601 623.2C975.001 623.2 991.901 620.3 1005.8 614.6C1019.7 608.9 1031.4 601.2 1040.5 591.7C1049.6 582.2 1056.5 570.9 1061 558.2C1065.5 545.4 1068.2 531.8 1069 517.9C1069.5 507.2 1069.8 495.5 1069.8 483.3C1069.8 471.1 1069.5 459.2 1069 447.9C1068.2 434 1065.5 420.4 1061 407.6C1056.5 394.9 1049.6 383.6 1040.5 374.1C1031.4 364.6 1019.7 356.9 1005.8 351.2C991.901 345.5 975.001 342.6 955.601 342.6ZM955.601 563.1C947.501 563.1 940.701 561.9 935.301 559.4C929.901 556.9 925.401 553.6 921.901 549.3C918.501 545.1 916.001 540.1 914.501 534.4C913.001 528.8 912.201 522.6 911.901 516C910.601 493.8 910.601 471.4 911.901 449.7C912.201 443.1 913.101 436.9 914.701 431.3C916.301 425.6 918.801 420.6 922.001 416.4C925.301 412.2 929.701 408.8 935.201 406.3C940.601 403.9 947.401 402.6 955.501 402.6C963.501 402.6 970.401 403.8 975.801 406.3C981.301 408.8 985.701 412.2 989.001 416.4C992.301 420.6 994.701 425.6 996.201 431.3C997.701 436.9 998.701 443.1 999.201 449.7C1000.2 471.5 1000.2 493.8 999.201 516C998.901 522.6 998.101 528.8 996.601 534.4C995.101 540.1 992.601 545.1 989.201 549.3C985.801 553.5 981.301 556.9 975.901 559.4C970.501 561.9 963.701 563.1 955.601 563.1ZM955.601 405.6C948.001 405.6 941.601 406.7 936.501 409C931.501 411.2 927.501 414.3 924.501 418.2C921.501 422.1 919.201 426.8 917.701 432.1C916.201 437.5 915.301 443.5 915.001 449.9C913.701 471.6 913.701 493.8 915.001 515.9C915.301 522.3 916.101 528.3 917.501 533.7C918.901 539 921.201 543.6 924.301 547.5C927.401 551.4 931.501 554.5 936.501 556.7C941.501 559 947.901 560.1 955.601 560.1C963.201 560.1 969.601 559 974.701 556.7C979.701 554.4 983.801 551.3 986.901 547.5C990.001 543.6 992.301 539 993.701 533.7C995.101 528.3 996.001 522.3 996.201 515.9C997.201 493.7 997.201 471.5 996.201 449.9C995.701 443.5 994.701 437.5 993.301 432.1C991.901 426.8 989.701 422.2 986.701 418.3C983.701 414.4 979.701 411.4 974.701 409.1C969.701 406.8 963.201 405.6 955.601 405.6Z" fill="#2A599E"/>
<path d="M1315.8 436.2H1264.2C1260.9 436.2 1258 435 1255.7 432.6C1253.3 430.2 1252.1 427.4 1252.1 424.1V385.4H1129.6C1126.3 385.4 1123.4 384.2 1121.1 381.8C1118.7 379.4 1117.5 376.6 1117.5 373.3V331.6C1117.5 324.5 1119.3 318.5 1122.9 313.8L1240.7 165.3C1243.2 162.2 1245.5 160.2 1247.7 159.2C1249.9 158.2 1252.8 157.7 1256.4 157.7H1315.9C1319.2 157.7 1322.1 158.9 1324.4 161.3C1326.8 163.7 1328 166.6 1328 169.8V319.5H1360.4C1363.7 319.5 1366.6 320.7 1368.9 323.1C1371.3 325.5 1372.5 328.4 1372.5 331.6V373.3C1372.5 376.6 1371.3 379.5 1368.9 381.8C1366.5 384.2 1363.6 385.4 1360.4 385.4H1328V424.1C1328 427.4 1326.8 430.3 1324.4 432.6C1321.9 435 1319.1 436.2 1315.8 436.2ZM1256.3 160.6C1253.1 160.6 1250.6 161 1248.9 161.8C1247.1 162.6 1245.1 164.4 1242.9 167.1L1125.2 315.5C1122 319.7 1120.4 325 1120.4 331.5V373.2C1120.4 375.7 1121.3 377.8 1123.1 379.6C1124.9 381.4 1127 382.3 1129.5 382.3H1253.5C1254.3 382.3 1255 383 1255 383.8V424C1255 426.5 1255.9 428.6 1257.7 430.4C1259.5 432.2 1261.6 433.1 1264.1 433.1H1315.7C1318.2 433.1 1320.3 432.2 1322.1 430.4C1323.9 428.6 1324.8 426.5 1324.8 424V383.8C1324.8 383 1325.5 382.3 1326.3 382.3H1360.2C1362.7 382.3 1364.8 381.4 1366.6 379.6C1368.4 377.8 1369.3 375.7 1369.3 373.2V331.5C1369.3 329 1368.4 326.9 1366.6 325.1C1364.8 323.3 1362.7 322.4 1360.2 322.4H1326.3C1325.5 322.4 1324.8 321.7 1324.8 320.9V169.7C1324.8 167.2 1323.9 165.1 1322.1 163.3C1320.3 161.5 1318.2 160.6 1315.7 160.6H1256.3ZM1255.5 322.4H1198C1197.4 322.4 1196.9 322.1 1196.6 321.6C1196.4 321.1 1196.4 320.5 1196.8 320L1254.3 247.5C1254.7 247 1255.4 246.8 1256 247C1256.6 247.2 1257 247.8 1257 248.4V320.9C1257 321.8 1256.4 322.4 1255.5 322.4ZM1201.1 319.4H1254V252.7L1201.1 319.4Z" fill="#2A599E"/>
<path d="M1840.4 720.1H79.5996C78.7996 720.1 78.0996 719.4 78.0996 718.6C78.0996 717.8 78.7996 717.1 79.5996 717.1H1840.4C1841.2 717.1 1841.9 717.8 1841.9 718.6C1841.9 719.4 1841.3 720.1 1840.4 720.1Z" fill="#2A599E"/>
<path d="M583.4 693.4L576.2 715.1L560 714.7L565.3 696.6" fill="white"/>
<path d="M576.201 716.6L559.901 716.2C559.401 716.2 559.001 716 558.701 715.6C558.401 715.2 558.301 714.7 558.501 714.3L563.901 696.2C564.101 695.4 565.001 695 565.801 695.2C566.601 695.4 567.001 696.3 566.801 697.1L562.001 713.3L575.201 713.7L582.001 693C582.301 692.2 583.101 691.8 583.901 692C584.701 692.3 585.101 693.1 584.901 693.9L577.701 715.7C577.401 716.2 576.901 716.6 576.201 716.6Z" fill="#2A599E"/>
<path d="M644.7 364.3L634.8 365.1C637.2 385.3 628.6 400.2 617.4 410.8L628.3 427.9C647.9 402.1 644.7 364.3 644.7 364.3Z" fill="white"/>
<path d="M628.3 429.4C627.7 429.4 627.3 429.1 627 428.7L616.1 411.6C615.7 411 615.8 410.2 616.3 409.7C629.6 397.1 635.3 382.2 633.2 365.2C633.2 364.8 633.3 364.4 633.5 364.1C633.8 363.8 634.1 363.6 634.5 363.6L644.4 362.8C644.8 362.8 645.2 362.9 645.5 363.1C645.8 363.4 646 363.7 646 364.1C646.1 365.7 649 402.8 629.3 428.8C629.2 429.2 628.8 429.4 628.3 429.4ZM619.4 411L628.5 425.2C644 403.1 643.7 372.8 643.4 365.8L636.6 366.4C638.1 383.4 632.3 398.3 619.4 411Z" fill="#163879"/>
<path d="M576.801 433.4L586.001 451C606.201 448.7 619.601 439.6 628.401 428L617.501 410.9C600.201 427.1 576.801 433.4 576.801 433.4Z" fill="#B4CCEB"/>
<path d="M586.001 452.5C585.401 452.5 584.901 452.2 584.701 451.7L575.601 434.2C575.401 433.8 575.401 433.3 575.601 432.9C575.801 432.5 576.101 432.2 576.601 432.1C576.801 432 599.901 425.7 616.601 409.8C616.901 409.5 617.401 409.3 617.801 409.4C618.201 409.5 618.601 409.7 618.901 410.1L629.801 427.2C630.101 427.7 630.101 428.4 629.701 428.9C619.401 442.5 604.801 450.5 586.301 452.5C586.101 452.5 586.001 452.5 586.001 452.5ZM579.001 434.4L586.801 449.4C603.601 447.3 616.901 440.1 626.501 427.9L617.101 413.2C602.601 426.2 584.701 432.6 579.001 434.4Z" fill="#163879"/>
<path d="M644.601 368.7L635.401 368.5C635.401 368.5 634.801 368.2 634.301 367.7C633.801 367.2 634.801 365.4 634.801 365.4C634.801 365.4 631.401 360.1 630.601 355.6C629.801 351.1 626.201 346.6 628.401 346.6C630.601 346.5 630.701 350.4 631.701 350C632.201 349.8 632.401 346.2 631.801 342.7C631.201 339.2 629.801 335.8 631.301 336.1C634.301 336.7 636.001 347.8 636.001 347.8C636.001 347.8 636.201 344.2 636.201 340.5C636.201 336.5 636.001 332.3 637.901 332.3C639.501 332.3 639.501 336 640.001 339.7C640.401 343.3 641.401 346.9 641.401 346.9C641.401 346.9 642.201 334.7 643.501 336C644.801 337.3 643.901 348.1 644.601 348.1C645.401 348.1 646.301 340.5 647.401 341.1C648.501 341.7 647.301 354.7 647.301 354.7C647.301 354.7 647.701 362.3 644.801 365.9C645.101 365.8 646.401 368.1 644.601 368.7Z" fill="#23387B"/>
<path d="M622.845 405.278L613.096 411.377L626.83 433.335L636.58 427.236L622.845 405.278Z" fill="#B4CCEB"/>
<path d="M626.802 434.9C626.302 434.9 625.802 434.7 625.502 434.2L611.802 412.2C611.402 411.5 611.602 410.6 612.302 410.1L622.102 404C622.802 403.6 623.702 403.8 624.202 404.5L637.902 426.5C638.102 426.8 638.202 427.2 638.102 427.6C638.002 428 637.802 428.3 637.402 428.5L627.602 434.6C627.302 434.8 627.102 434.9 626.802 434.9ZM615.102 411.9L627.202 431.3L634.402 426.8L622.302 407.4L615.102 411.9Z" fill="#163879"/>
<path d="M-226.199 335.3L-233.699 313C-233.499 312.9 -209.199 304.5 -183.799 284.7C-150.599 258.8 -131.099 226.4 -125.999 188.5C-120.699 149.2 -103.399 114.4 -75.8992 87.7C-50.3992 62.9 -17.0992 46.6 17.7008 41.7C51.8008 36.9 85.3008 43.1 114.601 59.4C146.601 77.2 172.401 106.9 189.101 145.3C216.201 207.2 261.301 246.2 323.301 261.1C370.301 272.4 409.901 264.9 410.301 264.9L414.801 288C413.001 288.3 370.501 296.4 318.701 284.2C288.101 277 260.601 264.2 237.001 246.1C207.501 223.5 184.101 192.8 167.501 154.8C139.101 89.8 84.3008 56.2 20.9008 65.1C-33.1992 72.7 -92.3992 114.7 -102.799 191.7C-108.699 235.5 -131.999 274.3 -170.099 303.8C-198.399 325.8 -225.099 334.9 -226.199 335.3Z" fill="#23387B"/>
<path d="M-235.499 304.7C-236.599 304.7 -237.699 304.1 -238.199 303C-238.899 301.5 -238.299 299.7 -236.799 299C-236.599 298.9 -216.599 289.5 -192.399 269C-170.099 250.2 -139.399 217.8 -120.199 170.8C-108.499 142.2 -82.5992 112.8 -49.1992 90.0999C-13.8992 66.0999 24.9008 52.8999 60.0008 52.8999C60.1008 52.8999 60.1008 52.8999 60.2008 52.8999C97.4008 52.9999 147.801 67.8999 176.601 139C191.101 174.8 212.001 203.9 238.601 225.5C259.901 242.7 285.001 255.3 313.101 262.7C361.001 275.4 401.601 268.8 402.001 268.7C403.601 268.4 405.201 269.5 405.501 271.2C405.801 272.9 404.701 274.4 403.001 274.7C401.301 275 360.701 281.6 311.501 268.6C282.601 261 256.801 248.1 234.801 230.3C207.301 208.1 185.901 178.2 171.001 141.4C143.501 73.3999 95.5008 59.0999 60.2008 59.0999C60.1008 59.0999 60.1008 59.0999 60.0008 59.0999C26.1008 59.0999 -11.4992 71.8999 -45.7992 95.2999C-78.2992 117.3 -103.299 145.8 -114.599 173.3C-134.299 221.5 -165.699 254.6 -188.599 273.9C-213.399 294.8 -233.399 304.2 -234.199 304.6C-234.599 304.6 -234.999 304.7 -235.499 304.7Z" fill="#163879"/>
<path d="M532.301 278C532.301 290.1 522.501 300 510.301 300H406.301C394.201 300 384.301 290.2 384.301 278C384.301 265.9 394.101 256 406.301 256H510.301C522.401 256 532.301 265.8 532.301 278Z" fill="white"/>
<path d="M510.301 301.4H406.301C393.401 301.4 382.801 290.9 382.801 277.9C382.801 264.9 393.301 254.4 406.301 254.4H510.301C523.201 254.4 533.801 264.9 533.801 277.9C533.801 290.9 523.301 301.4 510.301 301.4ZM406.301 257.5C395.001 257.5 385.801 266.7 385.801 278C385.801 289.3 395.001 298.5 406.301 298.5H510.301C521.601 298.5 530.801 289.3 530.801 278C530.801 266.7 521.601 257.5 510.301 257.5H406.301Z" fill="#163879"/>
<path d="M503.701 282.4H409.601C400.201 282.4 392.301 275.8 390.201 267C388.701 269.8 387.801 273 387.801 276.4C387.801 287.4 396.701 296.3 407.701 296.3H501.801C512.801 296.3 521.701 287.4 521.701 276.4C521.701 274.9 521.501 273.4 521.201 271.9C517.801 278.2 511.201 282.4 503.701 282.4Z" fill="#B4CCEB"/>
<path d="M578.5 286C578.5 308.7 560.1 327 537.5 327C514.8 327 496.5 308.6 496.5 286V269.8C496.5 247.1 514.9 228.8 537.5 228.8C560.2 228.8 578.5 247.2 578.5 269.8V286Z" fill="white"/>
<path d="M537.5 328.6C514.1 328.6 495 309.5 495 286.1V269.9C495 246.4 514.1 227.4 537.5 227.4C561 227.4 580 246.5 580 269.9V286C580 309.5 560.9 328.6 537.5 328.6ZM537.5 230.3C515.7 230.3 498 248 498 269.8V286C498 307.8 515.7 325.5 537.5 325.5C559.3 325.5 577 307.8 577 286V269.8C577 248.1 559.3 230.3 537.5 230.3Z" fill="#163879"/>
<path d="M549.801 305.1C529.701 305.1 513.501 288.8 513.501 268.8V254.5C513.501 249.6 514.501 245 516.201 240.8C506.501 247.3 500.201 258.4 500.201 270.9V285.2C500.201 305.3 516.501 321.5 536.501 321.5C551.701 321.5 564.701 312.2 570.101 298.9C564.301 302.8 557.301 305.1 549.801 305.1Z" fill="#B4CCEB"/>
<path d="M712.6 309.2C712.6 334.7 691.9 355.4 666.4 355.4H584.3C558.8 355.4 538.1 334.7 538.1 309.2V246.8C538.1 221.3 558.8 200.6 584.3 200.6H666.4C691.9 200.6 712.6 221.3 712.6 246.8V309.2Z" fill="white"/>
<path d="M666.3 356.9H584.2C557.9 356.9 536.5 335.5 536.5 309.2V246.8C536.5 220.5 557.9 199.1 584.2 199.1H666.3C692.6 199.1 714 220.5 714 246.8V309.2C714.1 335.5 692.7 356.9 666.3 356.9ZM584.3 202C559.6 202 539.6 222.1 539.6 246.7V309.1C539.6 333.8 559.7 353.8 584.3 353.8H666.4C691.1 353.8 711.1 333.7 711.1 309.1V246.7C711.1 222 691 202 666.4 202H584.3Z" fill="#163879"/>
<path d="M681.902 328.1H605.602C581.902 328.1 562.602 308.9 562.602 285.1V227.1C562.602 221.5 563.702 216.2 565.602 211.3C551.702 218.4 542.102 232.9 542.102 249.6V307.6C542.102 331.3 561.302 350.6 585.102 350.6H661.402C679.602 350.6 695.102 339.3 701.402 323.4C695.502 326.4 688.902 328.1 681.902 328.1Z" fill="#B4CCEB"/>
<path d="M719.7 169.9C712.6 169.9 706 171.2 700.4 173.3C700.3 173.3 700.2 173.3 700.1 173.3C696.3 173.3 692.7 175.6 689.4 179.9C686.4 182.7 684.5 185.9 683.8 189.4C675.1 208.1 669.4 241.4 669.4 279.3C669.4 337.8 683.2 385.3 700.1 385.3C701.7 385.3 703.3 384.9 704.8 384.1C709.3 385.3 714.3 386 719.6 386C739.5 386 755.6 376.2 755.6 364V191.9C755.8 179.7 739.6 169.9 719.7 169.9Z" fill="white"/>
<path d="M719.7 387.5C714.6 387.5 709.7 386.9 705 385.6C703.4 386.4 701.8 386.7 700.1 386.7C682 386.7 667.9 339.5 667.9 279.2C667.9 242.3 673.3 208.6 682.4 188.8C683.1 185.2 685.1 181.7 688.3 178.8C692 174.1 696 171.7 700.1 171.7C706 169.5 712.7 168.3 719.6 168.3C740.3 168.3 757.1 178.8 757.1 191.8V364C757.3 377 740.4 387.5 719.7 387.5ZM704.9 382.6C705 382.6 705.2 382.6 705.3 382.7C709.9 384 714.7 384.6 719.7 384.6C738.7 384.6 754.2 375.4 754.2 364.1V191.9C754.2 180.6 738.7 171.4 719.7 171.4C713 171.4 706.6 172.5 701 174.7C700.8 174.8 700.6 174.8 700.4 174.8H700.2C697 174.8 693.8 176.8 690.6 180.8C690.6 180.9 690.5 180.9 690.4 181C687.6 183.6 685.8 186.6 685.3 189.7C685.3 189.8 685.2 189.9 685.2 190.1C676.2 209.4 670.9 242.8 670.9 279.4C670.9 336 684.3 383.9 700.1 383.9C701.4 383.9 702.8 383.5 704.1 382.8C704.4 382.6 704.6 382.6 704.9 382.6Z" fill="#163879"/>
<path d="M648.201 306.5C648.201 308 647.001 309.2 645.501 309.2C644.001 309.2 642.801 308 642.801 306.5V239.5C642.801 238 644.001 236.8 645.501 236.8C647.001 236.8 648.201 238 648.201 239.5V306.5Z" fill="#B4CCEB"/>
<path d="M628.8 306.5C628.8 308 627.6 309.2 626.1 309.2C624.6 309.2 623.4 308 623.4 306.5V239.5C623.4 238 624.6 236.8 626.1 236.8C627.6 236.8 628.8 238 628.8 239.5V306.5Z" fill="#B4CCEB"/>
<path d="M771.9 279.3C771.9 337.8 758.1 385.3 741.2 385.3C724.2 385.3 710.5 337.8 710.5 279.3C710.5 220.8 724.3 173.3 741.2 173.3C758.1 173.3 771.9 220.7 771.9 279.3Z" fill="#5B86C4"/>
<path d="M741.2 386.8C723.1 386.8 709 339.6 709 279.3C709 219 723.2 171.8 741.2 171.8C759.3 171.8 773.4 219 773.4 279.3C773.4 339.6 759.2 386.8 741.2 386.8ZM741.2 174.8C725.4 174.8 712 222.7 712 279.3C712 335.9 725.4 383.8 741.2 383.8C757 383.8 770.4 335.9 770.4 279.3C770.4 222.6 757 174.8 741.2 174.8Z" fill="#163879"/>
<path d="M734.001 296.1C734.001 298.4 732.201 300.2 729.901 300.2C727.601 300.2 725.801 298.4 725.801 296.1V260.3C725.801 258 727.601 256.2 729.901 256.2C732.201 256.2 734.001 258 734.001 260.3V296.1Z" fill="#23387B"/>
<path d="M757.1 282.3C757.1 284.6 755.3 286.4 753 286.4C750.7 286.4 748.9 284.6 748.9 282.3V246.5C748.9 244.2 750.7 242.4 753 242.4C755.3 242.4 757.1 244.2 757.1 246.5V282.3Z" fill="#23387B"/>
<path d="M635.4 683.9L632.2 702.5L614.5 705.3L618.5 687.1" fill="white"/>
<path d="M614.501 706.8C614.101 706.8 613.701 706.6 613.401 706.3C613.101 705.9 612.901 705.4 613.001 704.9L617.001 686.7C617.201 685.9 618.001 685.4 618.801 685.6C619.601 685.8 620.101 686.6 619.901 687.4L616.401 703.4L630.801 701.1L633.801 683.6C633.901 682.8 634.701 682.2 635.501 682.4C636.301 682.5 636.901 683.3 636.701 684.1L633.501 702.7C633.401 703.3 632.901 703.8 632.301 703.9L614.601 706.7C614.701 706.8 614.601 706.8 614.501 706.8Z" fill="#163879"/>
<path d="M554.7 424.4C554.7 424.4 528.1 428.4 530.2 454.2C530.9 463 545.9 538.7 545.9 538.7L615.8 532C615.8 532 597 435.6 585 427.6C573.1 419.6 554.7 424.4 554.7 424.4Z" fill="#23387B"/>
<path d="M545.9 538.7C545.9 538.7 549.3 560.1 556.8 580.3C568.2 610.7 577.9 625.8 575.2 648.3C571.1 682.1 558.3 701.1 558.3 701.1L587.9 705.8C587.9 705.8 606.3 643.8 603.6 635C598.8 593.4 594.4 529.2 594.4 529.2L545.9 538.7Z" fill="#23387B"/>
<path d="M611.1 521.5C611.1 521.5 646.4 573 648 609.4C649.3 639 637.6 692.4 637.6 692.4L612.9 691.6C612.9 691.6 621.7 623.7 616.3 607.3C600.3 578.5 576.4 543.5 576.4 543.5L611.1 521.5Z" fill="#23387B"/>
<path d="M547.501 435.4C547.501 435.4 565.501 430 572.301 448.4C579.101 466.8 573.101 479.7 562.201 481.7C539.401 485.7 523.201 438.2 547.501 435.4Z" fill="#B4CCEB"/>
<path d="M591.3 451.6C591.9 453.5 583.9 458.4 583.9 458.4C583.9 458.4 581.9 453.2 579.4 449.1C578.1 447 576.5 444.7 574.5 442.5C571.5 439.7 567.5 435.7 563 433.7C561.4 433 559.7 432.4 557.9 431.9C554.3 431 554.1 427.4 557.7 426.7C559.5 426.1 561.4 425.9 563.3 426C565.2 426 567.1 426.3 568.9 426.8C570.9 427.2 572.8 427.8 574.5 428.6C576.2 429.4 577.8 430.4 579.5 431.5C581.3 432.5 587.9 440.9 591.3 451.6Z" fill="#B4CCEB"/>
<path d="M555.4 392.3L552.7 409.9L540.4 398.6L536 389.9L540.9 385.2C540.9 385.2 559.5 370.1 562.5 366.7C565.5 363.3 575.4 382.4 566.9 390.4" fill="#23387B"/>
<path d="M550.6 406.8L552.1 428.4C552.1 428.4 559.8 432.3 564.2 431.7C568.6 431.1 570.8 428 570.8 428L563.7 407L550.6 406.8Z" fill="white"/>
<path d="M563.2 433.2C558.5 433.2 552.2 430.1 551.4 429.7C550.9 429.5 550.6 429 550.6 428.5L549.1 406.9C549.1 406.5 549.2 406.1 549.5 405.8C549.8 405.5 550.2 405.3 550.6 405.3L563.7 405.4C564.3 405.4 564.9 405.8 565.1 406.4L572.2 427.4C572.4 427.9 572.3 428.4 572 428.8C571.9 428.9 569.3 432.4 564.4 433.1C564 433.2 563.6 433.2 563.2 433.2ZM553.6 427.4C556.1 428.6 561.2 430.6 564.1 430.2C566.7 429.8 568.4 428.4 569.2 427.6L562.7 408.4L552.3 408.3L553.6 427.4Z" fill="#163879"/>
<path d="M565.199 386.2L551.999 391.4C551.999 391.4 553.399 397.4 553.099 398.1L549.299 400.4C547.499 401.7 547.299 404.6 548.899 406.9C550.499 409.2 553.299 410.1 555.099 408.8C555.499 408.5 555.899 408.1 556.099 407.7C559.899 411.5 562.599 413.3 567.599 413.3C577.199 413.3 565.199 386.2 565.199 386.2Z" fill="white"/>
<path d="M567.7 414.3C562.7 414.3 559.7 412.6 556.3 409.2C556.1 409.4 556 409.5 555.8 409.6C554.7 410.4 553.2 410.6 551.7 410.1C550.3 409.7 549 408.7 548.1 407.4C547.2 406.1 546.7 404.6 546.8 403.1C546.9 401.6 547.6 400.3 548.7 399.5C548.9 399.4 549.6 399 551.7 397.7L552.1 397.5C552 396.5 551.5 393.8 551 391.6C550.9 391.1 551.1 390.6 551.6 390.4L564.8 385.2C565.3 385 565.9 385.2 566.1 385.7C567 387.8 575.1 406.5 571.3 412.3C570.6 413.6 569.3 414.3 567.7 414.3ZM556.2 406.7C556.5 406.7 556.7 406.8 556.9 407C560.4 410.6 563 412.3 567.7 412.3C568.6 412.3 569.2 412 569.7 411.3C572.3 407.3 567.3 393.5 564.7 387.5L553.2 392C554.4 397.5 554.2 398.2 554.1 398.5C554 398.7 553.9 398.8 553.7 399C553.7 399 553.3 399.2 552.8 399.5C551.8 400.1 550.1 401.1 549.9 401.3C549.3 401.7 548.9 402.5 548.9 403.4C548.8 404.4 549.2 405.5 549.8 406.4C550.4 407.3 551.3 408 552.3 408.3C553.2 408.6 554 408.5 554.6 408C554.9 407.8 555.1 407.5 555.3 407.2C555.5 406.9 555.7 406.7 556 406.7C556.1 406.7 556.1 406.7 556.2 406.7Z" fill="#163879"/>
<path d="M600.3 363.7H592.7C593.6 380.8 584.6 396.6 574.4 409.1L587.9 420.3C600.8 392.9 600.3 363.7 600.3 363.7Z" fill="white"/>
<path d="M587.799 421.8C587.499 421.8 587.099 421.7 586.799 421.5L573.299 410.3C572.699 409.8 572.599 408.8 573.099 408.2C585.799 392.8 591.799 377.9 591.099 363.8C591.099 363.4 591.199 363 591.499 362.7C591.799 362.4 592.199 362.2 592.599 362.2H600.199C600.999 362.2 601.699 362.9 601.699 363.7C601.699 364 601.999 393.6 589.099 420.9C588.899 421.3 588.499 421.6 588.099 421.7C587.999 421.8 587.899 421.8 587.799 421.8ZM576.399 408.9L587.199 417.9C597.499 395.1 598.599 371.3 598.699 365.2H594.199C594.499 379.2 588.499 393.8 576.399 408.9Z" fill="#163879"/>
<path d="M545.1 436C543 438.5 541.5 440.8 540.4 442.9C537.9 447.5 537.9 454 541.9 456.4C554.7 465.2 566.7 450.8 574.4 441.5C576 439.6 577.5 437.6 578.9 435.5C580.3 433.4 581.6 431.4 582.8 429.3C583.7 427.8 584.6 426.5 585.4 425C586.2 423.4 587 421.9 587.8 420.3L574.3 409.1C574.2 409.3 549.1 431.6 545.1 436Z" fill="#B4CCEB"/>
<path d="M550.201 460.6C547.301 460.6 544.201 459.7 541.101 457.6C536.401 454.8 536.301 447.4 539.101 442.2C540.201 440 541.901 437.5 543.901 435C543.901 435 543.901 435 544.001 434.9C547.201 431.4 563.401 416.9 570.301 410.7C571.901 409.3 573.201 408.1 573.301 408C573.501 407.7 573.901 407.6 574.201 407.6C574.601 407.6 575.001 407.7 575.301 407.9L588.801 419.1C589.301 419.5 589.501 420.3 589.201 420.9C588.401 422.6 587.601 424.2 586.801 425.7C586.201 426.8 585.601 427.8 585.001 428.8C584.701 429.2 584.501 429.6 584.201 430C582.801 432.4 581.401 434.6 580.201 436.3C578.901 438.3 577.401 440.3 575.601 442.4C569.601 449.6 560.501 460.6 550.201 460.6ZM546.201 437C544.301 439.3 542.801 441.5 541.801 443.6C539.701 447.6 539.601 453.2 542.801 455.1C545.301 456.8 547.801 457.6 550.301 457.6C559.301 457.6 567.501 447.6 573.401 440.6C575.101 438.6 576.501 436.7 577.801 434.7C578.901 433.1 580.301 430.9 581.701 428.6C582.001 428.1 582.201 427.7 582.501 427.3C583.101 426.3 583.701 425.4 584.201 424.4C584.801 423.3 585.401 422.1 586.001 420.8L574.401 411.2C573.901 411.6 573.201 412.2 572.201 413.1C565.401 419.1 549.401 433.5 546.201 437Z" fill="#163879"/>
<path d="M576.634 400.505L569.277 409.345L589.187 425.914L596.543 417.074L576.634 400.505Z" fill="#B4CCEB"/>
<path d="M589.1 427.4C588.8 427.4 588.4 427.3 588.1 427.1L568.2 410.5C567.6 410 567.5 409 568 408.4L575.4 399.5C575.7 399.2 576 399 576.4 399C576.8 399 577.2 399.1 577.5 399.3L597.4 415.9C597.7 416.2 597.9 416.5 597.9 416.9C597.9 417.3 597.8 417.7 597.6 418L590.2 426.9C589.9 427.2 589.6 427.4 589.2 427.4H589.1ZM571.3 409.2L588.9 423.9L594.4 417.3L576.8 402.6L571.3 409.2Z" fill="#163879"/>
<path d="M608.5 513.6C608.5 513.6 565.8 525.4 542.9 522.6L544.6 543.1C544.6 543.1 588.9 532.2 609.7 521.3C610.1 521.1 609.7 520.1 609.7 520.1L608.5 513.6Z" fill="white"/>
<path d="M544.501 544.6C544.201 544.6 543.901 544.5 543.601 544.3C543.201 544 543.001 543.6 543.001 543.2L541.301 522.7C541.301 522.2 541.401 521.8 541.801 521.5C542.101 521.2 542.601 521 543.001 521.1C565.401 523.9 607.601 512.3 608.101 512.2C608.501 512.1 608.901 512.2 609.301 512.4C609.701 512.6 609.901 513 610.001 513.4L611.101 519.9C611.601 521.4 611.001 522.4 610.301 522.8C589.601 533.6 546.701 544.2 544.901 544.7C544.701 544.6 544.601 544.6 544.501 544.6ZM544.501 524.3L545.901 541.3C554.101 539.2 589.901 529.8 608.201 520.5L607.301 515.6C599.401 517.6 565.401 526.1 544.501 524.3Z" fill="#163879"/>
<path d="M628.3 715.8L626.7 713.8L610.9 712.7L609.6 717C609.6 717 655.4 722.2 656.2 718.8C656.5 717.7 656.7 717.1 656.6 716.5L628.3 715.8Z" fill="#B4CCEB"/>
<path d="M648.6 721.5C645 721.5 639.8 721.3 632.4 720.7C621 719.8 609.5 718.5 609.4 718.5C609 718.5 608.6 718.2 608.3 717.8C608.1 717.4 608 717 608.1 716.5L609.4 712.2C609.6 711.5 610.2 711.1 610.9 711.1L626.7 712.2C627.1 712.2 627.5 712.4 627.8 712.8L629 714.3L656.6 715.1C657.3 715.1 657.9 715.7 658 716.4C658.1 717.1 657.9 717.7 657.7 718.5C657.6 718.7 657.6 719 657.5 719.3C657.3 720.3 657 721.5 648.6 721.5ZM611.5 715.8C630.8 717.9 651.4 719.3 654.7 718.1L628.2 717.4C627.8 717.4 627.3 717.2 627.1 716.8L625.9 715.3L612 714.4L611.5 715.8Z" fill="#163879"/>
<path d="M628.3 715.8L656.6 716.6C656.4 715.4 658.4 714.2 651.9 710.4C648.4 708.3 640.9 708.2 638.2 706.2C633.6 702.8 631.3 698.4 631.3 698.4C631.3 698.4 625.2 705.8 621.8 704.4C618.4 703 614.4 701.7 614.4 701.7L611 712.8L626.8 713.9L628.3 715.8Z" fill="#B4CCEB"/>
<path d="M656.499 718.1L628.199 717.3C627.799 717.3 627.299 717.1 627.099 716.7L625.899 715.2L610.799 714.2C610.299 714.2 609.899 713.9 609.699 713.6C609.399 713.2 609.399 712.7 609.499 712.3L612.899 701.2C612.999 700.8 613.299 700.5 613.599 700.3C613.999 700.1 614.399 700.1 614.699 700.2C614.899 700.3 618.799 701.5 622.199 702.9C623.599 703.5 627.399 700.4 629.899 697.3C630.199 696.9 630.699 696.7 631.199 696.8C631.699 696.8 632.099 697.1 632.399 697.6C632.399 697.6 634.699 701.8 638.899 704.9C639.999 705.7 642.499 706.2 644.999 706.7C647.699 707.3 650.499 707.8 652.399 709C657.599 712 658.299 713.9 657.899 716.1C657.899 716.2 657.899 716.3 657.899 716.3C657.999 716.7 657.799 717.2 657.499 717.5C657.399 718 656.999 718.1 656.499 718.1ZM628.999 714.3L655.099 715C654.899 714.4 654.099 713.4 650.999 711.6C649.499 710.7 646.899 710.2 644.499 709.7C641.599 709.1 638.799 708.5 637.199 707.3C634.199 705.1 632.099 702.5 630.999 700.8C628.699 703.2 624.499 707 621.199 705.7C619.099 704.8 616.799 704 615.399 703.5L612.999 711.3L626.899 712.2C627.299 712.2 627.699 712.4 627.999 712.8L628.999 714.3Z" fill="#163879"/>
<path d="M573.001 727.6L571.501 725.5L555.801 723.8L554.301 728.1C554.301 728.1 599.801 735.1 600.701 731.7C601.001 730.6 601.301 730 601.201 729.5L573.001 727.6Z" fill="#B4CCEB"/>
<path d="M595.7 734.2C592 734.2 586.2 733.8 577 732.7C565.6 731.4 554.2 729.6 554.1 729.6C553.7 729.5 553.3 729.3 553 728.9C552.8 728.5 552.7 728.1 552.9 727.6L554.4 723.3C554.6 722.6 555.3 722.2 556 722.3L571.7 724C572.1 724 572.5 724.3 572.7 724.6L573.8 726.1L601.3 727.9C602 727.9 602.6 728.5 602.7 729.2C602.8 729.9 602.6 730.5 602.4 731.3C602.3 731.5 602.3 731.8 602.2 732C601.9 733.1 601.6 734.2 595.7 734.2ZM556.3 726.9C575.5 729.8 596.1 732 599.4 730.9L572.9 729.1C572.5 729.1 572.1 728.8 571.8 728.5L570.7 727L556.8 725.5L556.3 726.9Z" fill="#163879"/>
<path d="M572.999 727.6L601.199 729.5C601.099 728.3 603.099 727.2 596.699 723.1C593.199 720.9 585.799 720.5 583.199 718.4C578.799 714.8 576.599 710.3 576.599 710.3C576.599 710.3 570.299 717.5 566.899 715.9C563.599 714.4 559.599 713 559.599 713L555.699 723.9L571.399 725.6L572.999 727.6Z" fill="#B4CCEB"/>
<path d="M601.2 731H601.1L572.9 729.1C572.5 729.1 572.1 728.8 571.8 728.5L570.7 727L555.6 725.4C555.1 725.4 554.7 725.1 554.5 724.7C554.3 724.3 554.2 723.8 554.4 723.4L558.3 712.5C558.4 712.1 558.7 711.8 559.1 711.6C559.5 711.4 559.9 711.4 560.2 711.5C560.4 711.6 564.2 713 567.6 714.5C569 715.1 572.9 712.2 575.5 709.2C575.8 708.8 576.3 708.6 576.8 708.7C577.3 708.8 577.7 709.1 577.9 709.5C577.9 709.5 580 713.7 584.1 717.1C585.2 718 587.7 718.6 590.1 719.2C592.8 719.9 595.6 720.5 597.5 721.7C602.6 724.9 603.2 726.8 602.7 729C602.7 729.1 602.7 729.2 602.6 729.2C602.6 729.6 602.5 730 602.2 730.4C602 730.9 601.6 731 601.2 731ZM573.8 726.2L599.9 727.9C599.8 727.3 599 726.3 596 724.4C594.5 723.5 592 722.8 589.5 722.2C586.6 721.5 583.9 720.8 582.3 719.5C579.4 717.1 577.4 714.5 576.3 712.7C573.9 715 569.5 718.7 566.3 717.2C564.3 716.3 562 715.4 560.5 714.8L557.8 722.5L571.6 724C572 724 572.4 724.3 572.6 724.6L573.8 726.2Z" fill="#163879"/>
<path d="M601.399 367.1L592.099 366.7C592.099 366.7 591.499 366.3 591.099 365.8C590.599 365.3 591.699 363.4 591.699 363.4C591.699 363.4 588.399 357.9 587.699 353.3C586.999 348.7 583.499 344 585.699 344C587.899 344 587.899 348 588.999 347.5C589.599 347.3 589.799 343.7 589.299 340.1C588.799 336.5 587.499 333.1 588.999 333.4C592.099 334.1 593.499 345.4 593.499 345.4C593.499 345.4 593.799 341.8 593.899 337.9C593.999 333.8 593.899 329.5 595.899 329.6C597.599 329.7 597.399 333.4 597.799 337.2C598.099 340.9 598.999 344.6 598.999 344.6C598.999 344.6 600.199 332.2 601.499 333.6C602.799 334.9 601.499 345.9 602.299 345.9C603.099 345.9 604.299 338.2 605.399 338.9C606.499 339.6 604.999 352.8 604.999 352.8C604.999 352.8 605.199 360.6 602.099 364.1C601.999 364.2 603.299 366.6 601.399 367.1Z" fill="#23387B"/>
<path d="M589.101 469.8C590.101 472.4 590.001 474.7 589.001 475.2C587.901 475.6 586.301 473.9 585.301 471.3C584.301 468.7 584.402 466.3 585.402 465.9C586.502 465.5 588.101 467.3 589.101 469.8Z" fill="white"/>
<path d="M597.801 464.5C598.801 467.1 598.701 469.4 597.701 469.9C596.601 470.3 595.001 468.6 594.001 466C593.001 463.4 593.101 461 594.101 460.6C595.201 460.2 596.801 462 597.801 464.5Z" fill="white"/>
<path d="M564.3 559.8C564.3 562.6 562 564.9 559.2 564.9H542.1C539.3 564.9 537 562.6 537 559.8V525.3C537 522.5 539.3 520.2 542.1 520.2H559.2C562 520.2 564.3 522.5 564.3 525.3V559.8Z" fill="#E5EDF9"/>
<path d="M559.2 566.5H542.1C538.4 566.5 535.5 563.5 535.5 559.9V525.4C535.5 521.7 538.5 518.8 542.1 518.8H559.2C562.9 518.8 565.8 521.8 565.8 525.4V559.9C565.8 563.5 562.8 566.5 559.2 566.5ZM542.1 521.7C540.1 521.7 538.5 523.3 538.5 525.3V559.8C538.5 561.8 540.1 563.4 542.1 563.4H559.2C561.2 563.4 562.8 561.8 562.8 559.8V525.3C562.8 523.3 561.2 521.7 559.2 521.7H542.1Z" fill="#2A599E"/>
<path d="M1339.2 594.5C1339.1 593 1339 591.5 1338.9 590.1C1338.8 588.7 1338.8 587.4 1338.7 586.2C1338.6 585 1338.6 583.9 1338.6 582.9C1338.6 581.6 1338.6 580.5 1338.6 579.6C1340.9 577.4 1357.2 560.1 1343.8 535.5C1343.8 535.5 1319.1 553.4 1338.2 579.6C1338.1 580.5 1337.9 581.6 1337.8 582.9C1337.5 584.9 1337.4 587.3 1337.2 590.1C1337.1 591.5 1337.1 593 1337 594.5C1336.9 596.1 1337.1 597.7 1337.2 599.4C1337.3 600.7 1337.4 602.1 1337.5 603.6C1336.6 602.4 1335.4 600.8 1334.2 599.2C1333.6 598.4 1333 597.6 1332.4 596.8C1332.2 596.5 1332 596.3 1331.8 596C1335.5 562 1310.9 557.2 1310.9 557.2C1311.5 593.1 1326 596.2 1330.5 596.3C1330.8 596.7 1331.2 597.1 1331.5 597.6C1332.1 598.3 1332.7 599.1 1333.3 599.9C1334.5 601.5 1335.7 603.1 1336.6 604.3C1336.7 604.4 1336.8 604.6 1336.9 604.7C1337 604.8 1337.2 604.9 1337.3 605C1337.4 605.1 1337.5 605.2 1337.6 605.3C1337.8 607 1338 608.7 1338.2 610.5C1338.3 611.5 1338.4 612.5 1338.5 613.5C1338.7 614.5 1338.8 615.5 1339 616.5C1339.3 618.5 1339.7 620.6 1340 622.7C1340.4 624.8 1340.8 626.9 1341.3 629.1C1341.5 630.1 1341.8 631.2 1342 632.2C1341.9 631.9 1341.7 631.7 1341.5 631.4C1341.2 630.9 1340.9 630.4 1340.6 629.9C1340 628.9 1339.4 627.9 1338.9 627C1338.3 626.1 1337.7 625.3 1337.2 624.6C1337.1 624.4 1337 624.2 1336.9 624.1C1336.8 624 1336.6 623.8 1336.5 623.7C1336.4 623.6 1336.3 623.5 1336.2 623.4C1335.5 618.1 1331 597.2 1305.3 592.5C1305.3 592.5 1303.7 622.9 1335.9 624.6C1335.9 624.7 1335.9 624.7 1336 624.8C1336.1 625 1336.2 625.1 1336.3 625.3C1336.8 626 1337.3 626.8 1337.9 627.7C1338.4 628.6 1339 629.6 1339.6 630.6C1339.9 631.1 1340.2 631.6 1340.5 632C1340.8 632.5 1341 633 1341.3 633.4C1341.8 634.4 1342.2 635.2 1342.6 636C1342.7 636.2 1342.7 636.4 1342.9 636.5C1343 636.6 1343 636.7 1343.1 636.8C1344 640.8 1345 644.8 1345.7 648.8C1346.1 651 1346.4 653.2 1346.7 655.4C1346.8 656.5 1346.9 657.6 1347 658.7C1347.1 659.8 1347.2 660.9 1347.2 662C1347.2 662.3 1347.2 662.5 1347.2 662.7C1347.1 662.6 1347.1 662.4 1347 662.2C1346.7 661.5 1346.3 660.9 1345.8 660.2C1345.4 659.5 1344.9 658.8 1344.4 658.1C1343.9 657.4 1343.3 656.8 1342.7 656.1C1342.1 655.5 1341.6 654.9 1341 654.4C1341.2 654.3 1341.3 654.3 1341.4 654.3C1341.4 654.3 1333 629.2 1305.8 633.9C1305.8 633.9 1312.2 662.7 1339.6 654.9C1339.8 655 1339.9 655.1 1340 655.3C1340.7 655.8 1341.2 656.4 1341.8 657C1342.4 657.6 1342.9 658.3 1343.4 658.9C1343.9 659.6 1344.4 660.2 1344.8 660.9C1345.2 661.6 1345.6 662.2 1345.9 662.9C1346.3 663.5 1346.5 664.1 1346.8 664.7C1346.9 665 1347 665.3 1347.2 665.5C1347.2 665.5 1347.2 665.6 1347.3 665.6C1347.3 666.6 1347.3 667.6 1347.2 668.6C1347.2 669.7 1347.1 670.7 1347.1 671.8C1347 672.9 1346.9 673.9 1346.8 675C1346.7 676 1346.6 677.1 1346.5 678.1C1346.3 679.1 1346.2 680.1 1346 681.1C1345.7 683.1 1345.4 685.1 1344.9 687C1344.5 688.9 1344.1 690.7 1343.7 692.5C1343.6 692.9 1343.5 693.3 1343.4 693.7C1343.3 693.3 1343.2 692.9 1343.1 692.5C1342.5 690.7 1341.7 689.1 1340.9 688C1340.8 687.9 1340.8 687.7 1340.6 687.6C1340.5 687.5 1340.3 687.4 1340.2 687.3C1340 687.2 1339.9 687.1 1339.8 687C1339.6 684.2 1337 663.8 1314.4 661.5C1314.4 661.5 1313 688.3 1339.3 687.4C1339.4 687.6 1339.4 687.7 1339.5 687.9C1339.5 688 1339.6 688.2 1339.6 688.3C1339.7 688.4 1339.8 688.5 1339.9 688.7C1340.6 689.8 1341.4 691.3 1342 692.9C1342.3 693.7 1342.5 694.5 1342.6 695.3C1342.7 695.7 1342.7 696.1 1342.7 696.4C1342.7 696.5 1342.7 696.5 1342.7 696.6C1342.6 696.9 1342.5 697.2 1342.4 697.6C1342.2 698.4 1342 699.2 1341.7 700C1341.5 700.8 1341.2 701.5 1341 702.3C1340.6 703.8 1340.3 705.2 1339.9 706.6C1339.3 709.3 1338.6 711.6 1338 713.5C1336.9 717.3 1336.3 719.5 1336.3 719.5C1336.3 719.5 1337.2 717.4 1338.8 713.8C1339.6 712 1340.6 709.7 1341.5 707.1C1341.8 706.2 1342.2 705.3 1342.6 704.3C1342.7 704.3 1342.8 704.2 1342.9 704.2C1343 704.1 1343.2 704.1 1343.3 704C1343.5 703.9 1343.5 703.8 1343.7 703.7C1344 703.5 1344.2 703.2 1344.6 703C1344.9 702.8 1345.3 702.5 1345.6 702.3C1346 702.1 1346.3 701.8 1346.7 701.5C1347.1 701.3 1347.5 701.1 1347.9 700.9C1348.3 700.7 1348.7 700.4 1349.2 700.3C1349.6 700.1 1350.1 700 1350.5 699.8C1350.9 699.6 1351.3 699.6 1351.7 699.4C1352.1 699.3 1352.5 699.2 1352.8 699.1C1353 699.1 1353.2 699.1 1353.3 699C1353.4 699 1353.4 698.9 1353.5 698.9C1358.2 700.1 1379.7 704.4 1394 681.9C1394 681.9 1366.7 669.1 1353 697.8C1352.9 697.8 1352.7 697.9 1352.6 697.9C1352.2 698 1351.9 698.1 1351.4 698.2C1351 698.3 1350.5 698.4 1350.1 698.6C1349.7 698.8 1349.2 698.9 1348.8 699.1C1348.3 699.2 1347.9 699.5 1347.5 699.7C1347.1 699.9 1346.6 700.2 1346.2 700.4C1345.8 700.6 1345.4 700.9 1345 701.2C1344.6 701.5 1344.2 701.7 1343.9 702C1343.7 702.1 1343.6 702.2 1343.4 702.4C1343.8 701.1 1344.1 699.7 1344.5 698.3C1344.9 696.6 1345.4 694.9 1345.9 693.1C1346.3 691.3 1346.7 689.4 1347.1 687.5C1347.6 685.6 1347.8 683.6 1348.2 681.5C1348.4 680.5 1348.5 679.4 1348.7 678.4C1348.8 677.9 1348.8 677.3 1348.9 676.8C1349 676.8 1349 676.8 1349.1 676.7C1349.2 676.7 1349.3 676.5 1349.4 676.5C1350.1 675.8 1351 674.9 1351.9 674C1352.8 673.1 1353.7 672.1 1354.4 671.5C1354.5 671.4 1354.5 671.4 1354.6 671.3C1360.5 670.4 1380.5 665.7 1385.3 640.7C1385.3 640.7 1354.8 638.8 1353 671.3C1352.4 671.9 1351.8 672.6 1351.1 673.2C1350.4 673.9 1349.7 674.6 1349.1 675.2C1349.2 674.2 1349.3 673.2 1349.4 672.1C1349.4 671 1349.5 669.9 1349.5 668.8C1349.7 666.6 1349.6 664.3 1349.5 662.1C1349.5 661 1349.4 659.8 1349.3 658.7C1349.2 657.6 1349.1 656.4 1349 655.3C1348.8 653.6 1348.5 651.9 1348.3 650.2C1348.3 650 1348.4 649.8 1348.4 649.6C1348.5 648.5 1348.6 647.3 1348.8 646C1349 644.7 1349.2 643.3 1349.5 641.8C1350 639 1350.6 636.2 1351.1 634.1C1351.1 633.8 1351.3 633.6 1351.3 633.3C1351.3 633.2 1351.3 633 1351.3 632.9C1354.3 631.4 1375.9 619.6 1366.4 593.1C1366.4 593.1 1336.4 611.6 1350.4 632.3C1350.4 632.3 1350.4 632.3 1350.4 632.4C1350.3 632.6 1350.2 632.8 1350.1 633.1C1350 633.3 1350 633.6 1349.9 633.9C1349.4 636 1348.8 638.8 1348.3 641.7C1348 643.1 1347.8 644.6 1347.6 645.9C1347.6 646 1347.6 646.1 1347.6 646.2C1346.9 642.5 1346 638.8 1345.1 635.2C1344.6 633 1344.1 630.9 1343.6 628.8C1343.1 626.7 1342.7 624.5 1342.3 622.5C1342 620.4 1341.6 618.4 1341.3 616.3C1341.1 615.3 1341 614.3 1340.8 613.3C1340.7 612.3 1340.6 611.3 1340.5 610.4C1340.3 608.7 1340.1 607 1340 605.4C1340.1 604.9 1340.1 604.5 1340.3 604C1340.4 603.4 1340.6 602.8 1340.8 602.2C1341 601.6 1341.2 601 1341.4 600.4C1341.6 599.8 1341.9 599.3 1342.1 598.8C1342.6 597.8 1343.2 596.8 1343.7 596C1343.8 595.8 1344 595.6 1344.1 595.4C1344.2 595.2 1344.3 595 1344.4 594.8C1349.1 593.3 1364.2 587.1 1360.2 568.3C1360.2 568.3 1338.5 573.4 1343 594.9C1342.9 595 1342.9 595.1 1342.8 595.2C1342.2 596 1341.7 597 1341.1 598.1C1340.8 598.7 1340.6 599.2 1340.3 599.8C1340.1 600.3 1339.9 600.9 1339.7 601.4C1339.7 600.7 1339.6 600 1339.6 599.3C1339.3 597.7 1339.3 596.1 1339.2 594.5Z" fill="#5B86C4"/>
<path d="M348 481.2C348 483.2 346.3 484.9 344.3 484.9C342.3 484.9 340.6 483.2 340.6 481.2C340.6 479.2 342.3 477.5 344.3 477.5C346.3 477.5 348 479.2 348 481.2Z" fill="#B4CCEB"/>
<path d="M369 481.2C369 483.2 367.3 484.9 365.3 484.9C363.3 484.9 361.6 483.2 361.6 481.2C361.6 479.2 363.3 477.5 365.3 477.5C367.4 477.5 369 479.2 369 481.2Z" fill="#B4CCEB"/>
<path d="M390.099 481.2C390.099 483.2 388.399 484.9 386.399 484.9C384.399 484.9 382.699 483.2 382.699 481.2C382.699 479.2 384.399 477.5 386.399 477.5C388.499 477.5 390.099 479.2 390.099 481.2Z" fill="#B4CCEB"/>
<path d="M411.199 481.2C411.199 483.2 409.499 484.9 407.499 484.9C405.499 484.9 403.799 483.2 403.799 481.2C403.799 479.2 405.499 477.5 407.499 477.5C409.499 477.5 411.199 479.2 411.199 481.2Z" fill="#B4CCEB"/>
<path d="M432.199 481.2C432.199 483.2 430.499 484.9 428.499 484.9C426.499 484.9 424.799 483.2 424.799 481.2C424.799 479.2 426.499 477.5 428.499 477.5C430.599 477.5 432.199 479.2 432.199 481.2Z" fill="#B4CCEB"/>
<path d="M453.3 481.2C453.3 483.2 451.6 484.9 449.6 484.9C447.6 484.9 445.9 483.2 445.9 481.2C445.9 479.2 447.6 477.5 449.6 477.5C451.6 477.5 453.3 479.2 453.3 481.2Z" fill="#B4CCEB"/>
<path d="M348 504.3C348 506.3 346.3 508 344.3 508C342.3 508 340.6 506.3 340.6 504.3C340.6 502.3 342.3 500.6 344.3 500.6C346.3 500.6 348 502.2 348 504.3Z" fill="#B4CCEB"/>
<path d="M369 504.3C369 506.3 367.3 508 365.3 508C363.3 508 361.6 506.3 361.6 504.3C361.6 502.3 363.3 500.6 365.3 500.6C367.4 500.6 369 502.2 369 504.3Z" fill="#B4CCEB"/>
<path d="M390.099 504.3C390.099 506.3 388.399 508 386.399 508C384.399 508 382.699 506.3 382.699 504.3C382.699 502.3 384.399 500.6 386.399 500.6C388.499 500.6 390.099 502.2 390.099 504.3Z" fill="#B4CCEB"/>
<path d="M411.199 504.3C411.199 506.3 409.499 508 407.499 508C405.499 508 403.799 506.3 403.799 504.3C403.799 502.3 405.499 500.6 407.499 500.6C409.499 500.6 411.199 502.2 411.199 504.3Z" fill="#B4CCEB"/>
<path d="M432.199 504.3C432.199 506.3 430.499 508 428.499 508C426.499 508 424.799 506.3 424.799 504.3C424.799 502.3 426.499 500.6 428.499 500.6C430.599 500.6 432.199 502.2 432.199 504.3Z" fill="#B4CCEB"/>
<path d="M453.3 504.3C453.3 506.3 451.6 508 449.6 508C447.6 508 445.9 506.3 445.9 504.3C445.9 502.3 447.6 500.6 449.6 500.6C451.6 500.6 453.3 502.2 453.3 504.3Z" fill="#B4CCEB"/>
<path d="M348 527.3C348 529.3 346.3 531 344.3 531C342.3 531 340.6 529.3 340.6 527.3C340.6 525.3 342.3 523.6 344.3 523.6C346.3 523.6 348 525.2 348 527.3Z" fill="#B4CCEB"/>
<path d="M369 527.3C369 529.3 367.3 531 365.3 531C363.3 531 361.6 529.3 361.6 527.3C361.6 525.3 363.3 523.6 365.3 523.6C367.4 523.6 369 525.2 369 527.3Z" fill="#B4CCEB"/>
<path d="M390.099 527.3C390.099 529.3 388.399 531 386.399 531C384.399 531 382.699 529.3 382.699 527.3C382.699 525.3 384.399 523.6 386.399 523.6C388.499 523.6 390.099 525.2 390.099 527.3Z" fill="#B4CCEB"/>
<path d="M411.199 527.3C411.199 529.3 409.499 531 407.499 531C405.499 531 403.799 529.3 403.799 527.3C403.799 525.3 405.499 523.6 407.499 523.6C409.499 523.6 411.199 525.2 411.199 527.3Z" fill="#B4CCEB"/>
<path d="M432.199 527.3C432.199 529.3 430.499 531 428.499 531C426.499 531 424.799 529.3 424.799 527.3C424.799 525.3 426.499 523.6 428.499 523.6C430.599 523.6 432.199 525.2 432.199 527.3Z" fill="#B4CCEB"/>
<path d="M453.3 527.3C453.3 529.3 451.6 531 449.6 531C447.6 531 445.9 529.3 445.9 527.3C445.9 525.3 447.6 523.6 449.6 523.6C451.6 523.6 453.3 525.2 453.3 527.3Z" fill="#B4CCEB"/>
<path d="M348 550.3C348 552.3 346.3 554 344.3 554C342.3 554 340.6 552.3 340.6 550.3C340.6 548.3 342.3 546.6 344.3 546.6C346.3 546.6 348 548.3 348 550.3Z" fill="#B4CCEB"/>
<path d="M369 550.3C369 552.3 367.3 554 365.3 554C363.3 554 361.6 552.3 361.6 550.3C361.6 548.3 363.3 546.6 365.3 546.6C367.4 546.6 369 548.3 369 550.3Z" fill="#B4CCEB"/>
<path d="M390.099 550.3C390.099 552.3 388.399 554 386.399 554C384.399 554 382.699 552.3 382.699 550.3C382.699 548.3 384.399 546.6 386.399 546.6C388.499 546.6 390.099 548.3 390.099 550.3Z" fill="#B4CCEB"/>
<path d="M411.199 550.3C411.199 552.3 409.499 554 407.499 554C405.499 554 403.799 552.3 403.799 550.3C403.799 548.3 405.499 546.6 407.499 546.6C409.499 546.6 411.199 548.3 411.199 550.3Z" fill="#B4CCEB"/>
<path d="M432.199 550.3C432.199 552.3 430.499 554 428.499 554C426.499 554 424.799 552.3 424.799 550.3C424.799 548.3 426.499 546.6 428.499 546.6C430.599 546.6 432.199 548.3 432.199 550.3Z" fill="#B4CCEB"/>
<path d="M453.3 550.3C453.3 552.3 451.6 554 449.6 554C447.6 554 445.9 552.3 445.9 550.3C445.9 548.3 447.6 546.6 449.6 546.6C451.6 546.6 453.3 548.3 453.3 550.3Z" fill="#B4CCEB"/>
<path d="M916.099 320.7C916.099 322.2 914.899 323.4 913.399 323.4C911.899 323.4 910.699 322.2 910.699 320.7C910.699 319.2 911.899 318 913.399 318C914.899 317.9 916.099 319.2 916.099 320.7Z" fill="#5B86C4"/>
<path d="M931.599 320.7C931.599 322.2 930.399 323.4 928.899 323.4C927.399 323.4 926.199 322.2 926.199 320.7C926.199 319.2 927.399 318 928.899 318C930.399 317.9 931.599 319.2 931.599 320.7Z" fill="#5B86C4"/>
<path d="M947.099 320.7C947.099 322.2 945.899 323.4 944.399 323.4C942.899 323.4 941.699 322.2 941.699 320.7C941.699 319.2 942.899 318 944.399 318C945.899 317.9 947.099 319.2 947.099 320.7Z" fill="#5B86C4"/>
<path d="M962.599 320.7C962.599 322.2 961.399 323.4 959.899 323.4C958.399 323.4 957.199 322.2 957.199 320.7C957.199 319.2 958.399 318 959.899 318C961.399 317.9 962.599 319.2 962.599 320.7Z" fill="#5B86C4"/>
<path d="M978.099 320.7C978.099 322.2 976.899 323.4 975.399 323.4C973.899 323.4 972.699 322.2 972.699 320.7C972.699 319.2 973.899 318 975.399 318C976.899 317.9 978.099 319.2 978.099 320.7Z" fill="#5B86C4"/>
<path d="M993.599 320.7C993.599 322.2 992.399 323.4 990.899 323.4C989.399 323.4 988.199 322.2 988.199 320.7C988.199 319.2 989.399 318 990.899 318C992.399 317.9 993.599 319.2 993.599 320.7Z" fill="#5B86C4"/>
<path d="M916.099 337.6C916.099 339.1 914.899 340.3 913.399 340.3C911.899 340.3 910.699 339.1 910.699 337.6C910.699 336.1 911.899 334.9 913.399 334.9C914.899 334.9 916.099 336.1 916.099 337.6Z" fill="#5B86C4"/>
<path d="M931.599 337.6C931.599 339.1 930.399 340.3 928.899 340.3C927.399 340.3 926.199 339.1 926.199 337.6C926.199 336.1 927.399 334.9 928.899 334.9C930.399 334.9 931.599 336.1 931.599 337.6Z" fill="#5B86C4"/>
<path d="M947.099 337.6C947.099 339.1 945.899 340.3 944.399 340.3C942.899 340.3 941.699 339.1 941.699 337.6C941.699 336.1 942.899 334.9 944.399 334.9C945.899 334.9 947.099 336.1 947.099 337.6Z" fill="#5B86C4"/>
<path d="M962.599 337.6C962.599 339.1 961.399 340.3 959.899 340.3C958.399 340.3 957.199 339.1 957.199 337.6C957.199 336.1 958.399 334.9 959.899 334.9C961.399 334.9 962.599 336.1 962.599 337.6Z" fill="#5B86C4"/>
<path d="M978.099 337.6C978.099 339.1 976.899 340.3 975.399 340.3C973.899 340.3 972.699 339.1 972.699 337.6C972.699 336.1 973.899 334.9 975.399 334.9C976.899 334.9 978.099 336.1 978.099 337.6Z" fill="#5B86C4"/>
<path d="M993.599 337.6C993.599 339.1 992.399 340.3 990.899 340.3C989.399 340.3 988.199 339.1 988.199 337.6C988.199 336.1 989.399 334.9 990.899 334.9C992.399 334.9 993.599 336.1 993.599 337.6Z" fill="#5B86C4"/>
<path d="M799.501 703.5C799.501 703.5 778.801 599.5 797.601 606.5C816.501 613.5 819.101 693.8 810.601 705.3" fill="#5B86C4"/>
<path d="M811.802 706.2L809.402 704.4C815.402 696.4 815.502 650.9 807.902 625.3C805.002 615.5 801.302 609.5 797.202 607.9C795.802 607.4 795.102 607.8 794.602 608.2C792.202 610.3 788.802 619.6 793.802 658.7C796.702 681.3 801.002 703 801.002 703.2L798.102 703.8C796.302 694.8 781.002 615.9 792.702 605.9C793.802 605 795.602 604.1 798.302 605.1C803.402 607 807.602 613.5 810.902 624.4C818.302 650 818.902 696.7 811.802 706.2Z" fill="#2A599E"/>
<path d="M797.5 707.3C797.5 707.3 793.8 664.8 773.5 667.1C753.2 669.3 782.7 704 787.9 707.3" fill="#B4CCEB"/>
<path d="M787.901 708.8C787.601 708.8 787.301 708.7 787.101 708.6C783.001 705.9 762.601 682.8 765.201 671.6C765.801 669.2 767.601 666.2 773.301 665.6C777.401 665.2 781.101 666.3 784.401 669C796.301 678.8 798.801 706 798.901 707.2C799.001 708 798.401 708.8 797.501 708.8C796.701 708.9 795.901 708.3 795.901 707.4C795.901 707.1 793.401 680.3 782.401 671.3C779.701 669.1 776.801 668.2 773.501 668.5C768.701 669 768.101 671.4 768.001 672.2C765.901 681.1 784.301 703.2 788.601 706C789.301 706.4 789.501 707.4 789.001 708.1C788.901 708.6 788.401 708.8 787.901 708.8Z" fill="#2A599E"/>
<path d="M773.902 649.7C773.902 649.7 768.402 666.3 783.102 663.4C797.902 660.4 793.602 659.9 793.602 659.9" fill="#B4CCEB"/>
<path d="M779.902 665.2C777.102 665.2 775.002 664.4 773.502 662.7C769.602 658.2 772.402 649.6 772.502 649.2L775.302 650.1C774.602 652.1 773.402 658 775.702 660.6C777.002 662.1 779.402 662.5 782.802 661.8C791.402 660.1 792.902 659.3 793.102 659.2C792.902 659.3 792.602 659.8 792.702 660.4C792.802 661 793.202 661.3 793.402 661.3L793.802 658.3C795.202 658.5 795.702 659.4 795.702 660C795.802 661.5 795.202 662.4 783.402 664.7C782.102 665.1 780.902 665.2 779.902 665.2Z" fill="#2A599E"/>
<path d="M801.901 707C801.901 707 797.101 643.5 790.101 640.9C783.101 638.3 771.301 643.9 773.901 649.8C776.501 655.7 793.801 707.4 793.801 707.4" fill="#E5EDF9"/>
<path d="M793.8 708.8C793.2 708.8 792.6 708.4 792.4 707.8C792.2 707.3 775 656.1 772.5 650.3C771.5 648 772 645.5 774.1 643.4C777.4 639.9 785.1 637.3 790.7 639.4C792.3 640 795.9 641.3 800.2 674.6C802.3 690.7 803.5 706.6 803.5 706.8C803.6 707.6 802.9 708.3 802.1 708.4C801.3 708.5 800.6 707.8 800.5 707C800.5 706.8 799.3 691 797.2 675.1C793.3 644.5 790 642.4 789.6 642.2C785.3 640.6 778.9 642.6 776.2 645.4C775 646.6 774.7 647.9 775.2 649C777.8 654.9 794.5 704.6 795.2 706.7C795.5 707.5 795 708.3 794.3 708.6C794.1 708.8 794 708.8 793.8 708.8Z" fill="#2A599E"/>
<path d="M843.901 637.3C843.901 637.3 848.701 657.3 839.501 663.9C830.201 670.6 823.201 658.3 823.201 658.3L821.701 636.5" fill="#B4CCEB"/>
<path d="M833.901 667.4C833.201 667.4 832.501 667.3 831.801 667.2C825.801 665.9 822.001 659.4 821.901 659.1L821.701 658.8L820.201 636.6L823.201 636.4L824.701 657.9C825.401 659 828.401 663.4 832.501 664.3C834.601 664.7 836.601 664.2 838.601 662.7C846.901 656.7 842.501 637.8 842.501 637.6L845.401 636.9C845.601 637.8 850.301 657.9 840.401 665.1C838.201 666.6 836.101 667.4 833.901 667.4Z" fill="#2A599E"/>
<path d="M805.801 705.7C805.801 705.7 811.001 621.3 829.101 626.5C847.201 631.7 843.901 641.7 843.901 641.7C843.901 641.7 839.501 637.6 836.901 642.8C834.301 648 821.001 707.2 821.001 707.2" fill="#E5EDF9"/>
<path d="M821 708.7C820.9 708.7 820.8 708.7 820.7 708.7C819.9 708.5 819.4 707.7 819.6 706.9C820.1 704.5 833 647.4 835.6 642.2C836.8 639.8 838.4 639 839.6 638.8C840.7 638.6 841.8 638.8 842.7 639.2C842.6 638.4 842.4 637.3 841.8 636.2C839.9 632.7 835.4 629.9 828.8 628C827.5 627.6 826.2 627.9 825 628.8C814 636.6 808.5 687.1 807.4 705.9C807.3 706.7 806.6 707.4 805.8 707.3C805 707.2 804.3 706.5 804.4 705.7C804.6 702.9 808.8 636.6 823.3 626.3C825.3 624.9 827.4 624.5 829.7 625.1C837.3 627.3 842.3 630.6 844.6 634.8C846.7 638.7 845.6 642 845.6 642.1C845.4 642.6 845 642.9 844.6 643.1C844.1 643.2 843.6 643.1 843.2 642.8C842.8 642.4 841.5 641.5 840.3 641.7C839.6 641.8 839 642.4 838.5 643.5C836.4 647.6 826.4 691.1 822.7 707.6C822.3 708.2 821.6 708.7 821 708.7Z" fill="#2A599E"/>
<path d="M813.9 705.9C813.9 705.9 821.3 663.9 841.3 667.9C861.3 671.9 828.9 703.9 823.4 706.7" fill="#B4CCEB"/>
<path d="M824.2 708.1L822.8 705.4C827.3 703 847.6 682.7 846.3 673.6C846.2 672.8 845.8 670.3 841.1 669.4C837.9 668.8 834.9 669.4 832 671.4C820.3 679.4 815.5 705.9 815.4 706.2L812.4 705.7C812.6 704.6 817.5 677.7 830.2 668.9C833.7 666.5 837.6 665.7 841.6 666.5C847.2 667.6 848.8 670.8 849.2 673.2C850.9 684.5 828.6 705.8 824.2 708.1Z" fill="#2A599E"/>
<path d="M803.701 706.7H803.601C803.101 706.6 802.601 706.2 802.701 705.6C806.001 672.8 796.401 612.5 796.301 611.9C796.201 611.4 796.601 610.8 797.101 610.8C797.601 610.7 798.201 611.1 798.201 611.6C798.301 612.2 807.901 672.8 804.601 705.8C804.601 706.3 804.201 706.7 803.701 706.7Z" fill="#2A599E"/>
<path d="M796.901 704.5C796.401 704.5 795.901 704.1 795.901 703.6C794.801 688.7 782.401 645 782.201 644.6C782.001 644.1 782.401 643.5 782.901 643.4C783.401 643.3 784.001 643.6 784.101 644.1C784.601 645.9 796.701 688.4 797.801 703.5C797.901 704 797.501 704.5 796.901 704.5Z" fill="#2A599E"/>
<path d="M790.202 705.6C789.702 705.6 789.302 705.3 789.202 704.8C787.002 695.5 772.502 673.5 772.302 673.3C772.002 672.8 772.102 672.2 772.602 671.9C773.102 671.6 773.702 671.7 774.002 672.2C774.602 673.1 788.902 694.7 791.202 704.4C791.302 704.9 791.002 705.5 790.502 705.6C790.402 705.6 790.302 705.6 790.202 705.6Z" fill="#2A599E"/>
<path d="M810.601 703.8C810.501 703.8 810.501 703.8 810.401 703.8C809.901 703.7 809.501 703.2 809.601 702.7C813.601 678.1 828.701 632.7 828.901 632.2C829.101 631.7 829.601 631.4 830.201 631.6C830.701 631.8 831.001 632.3 830.801 632.9C830.601 633.4 815.601 678.6 811.601 703.1C811.501 703.4 811.101 703.8 810.601 703.8Z" fill="#2A599E"/>
<path d="M817.8 706.4C817.6 706.4 817.5 706.4 817.3 706.3L816.9 706.1C816.4 705.8 816.2 705.2 816.5 704.7C824.6 690.3 835.7 675.5 836.9 673.9C837.1 673.7 837.3 673.5 837.6 673.5C837.9 673.5 838.1 673.5 838.4 673.7L838.7 673.9C838.9 674.1 839.1 674.3 839.1 674.6C839.1 674.9 839.1 675.1 838.9 675.3C838.8 675.5 827 691 818.6 705.9C818.5 706.1 818.3 706.3 818 706.4C818 706.4 817.9 706.4 817.8 706.4Z" fill="#2A599E"/>
<path d="M838.001 703.9H776.801V717.6H838.001V703.9Z" fill="#5B86C4"/>
<path d="M839.501 719.1H775.301V702.4H839.501V719.1ZM778.301 716.1H836.501V705.4H778.301V716.1Z" fill="#2A599E"/>
<path d="M856.6 322V313.9H850.1C849.6 311.2 848.5 308.7 847 306.5L851.6 301.9L845.9 296.2L841.3 300.8C839.1 299.3 836.6 298.3 833.9 297.7V291.2H825.8V297.7C823.1 298.2 820.6 299.3 818.4 300.8L813.8 296.2L808.1 301.9L812.7 306.5C811.2 308.7 810.2 311.2 809.6 313.9H803.1V322H809.6C810.1 324.7 811.2 327.2 812.7 329.4L808 334L813.7 339.7L818.3 335.1C820.5 336.6 823 337.6 825.7 338.2V344.7H833.8V338.2C836.5 337.7 839 336.6 841.2 335.1L845.8 339.7L851.5 334L846.9 329.4C848.4 327.2 849.4 324.7 850 322H856.6ZM829.8 329.4C823.5 329.4 818.3 324.3 818.3 317.9C818.3 311.6 823.4 306.4 829.8 306.4C836.1 306.4 841.3 311.5 841.3 317.9C841.3 324.3 836.2 329.4 829.8 329.4Z" fill="#B4CCEB"/>
<path d="M1393.8 139.2V133.5H1389.3C1388.9 131.6 1388.2 129.8 1387.1 128.3L1390.3 125.1L1386.3 121.1L1383.1 124.3C1381.5 123.3 1379.8 122.5 1377.9 122.1V117.6H1372.2V122.1C1370.3 122.5 1368.5 123.2 1367 124.3L1363.8 121.1L1359.8 125.1L1363 128.3C1362 129.9 1361.2 131.6 1360.8 133.5H1356.3V139.2H1360.8C1361.2 141.1 1361.9 142.9 1363 144.4L1359.8 147.6L1363.8 151.6L1367 148.4C1368.6 149.4 1370.3 150.2 1372.2 150.6V155.1H1377.9V150.6C1379.8 150.2 1381.6 149.5 1383.1 148.4L1386.3 151.6L1390.3 147.6L1387.1 144.4C1388.1 142.8 1388.9 141.1 1389.3 139.2H1393.8ZM1375 144.4C1370.6 144.4 1367 140.8 1367 136.4C1367 132 1370.6 128.4 1375 128.4C1379.4 128.4 1383 132 1383 136.4C1383.1 140.8 1379.5 144.4 1375 144.4Z" fill="#5B86C4"/>
<path d="M1063.4 661.7C1063.4 669.7 1056.9 676.1 1049 676.1H945C937 676.1 930.6 669.6 930.6 661.7C930.6 653.7 937.1 647.3 945 647.3H1049C1056.9 647.3 1063.4 653.8 1063.4 661.7Z" fill="white"/>
<path d="M1048.9 677.7H944.9C936.1 677.7 929 670.5 929 661.8C929 653.1 936.2 645.9 944.9 645.9H1048.9C1057.7 645.9 1064.8 653.1 1064.8 661.8C1064.8 670.5 1057.7 677.7 1048.9 677.7ZM944.9 648.8C937.8 648.8 932 654.6 932 661.7C932 668.8 937.8 674.6 944.9 674.6H1048.9C1056 674.6 1061.8 668.8 1061.8 661.7C1061.8 654.6 1056 648.8 1048.9 648.8H944.9Z" fill="#2A599E"/>
<path d="M1063.4 578.5C1063.4 586.5 1056.9 592.9 1049 592.9H945C937 592.9 930.6 586.4 930.6 578.5C930.6 570.5 937.1 564.1 945 564.1H1049C1056.9 564.1 1063.4 570.5 1063.4 578.5Z" fill="white"/>
<path d="M1048.9 594.5H944.9C936.1 594.5 929 587.3 929 578.6C929 569.8 936.2 562.7 944.9 562.7H1048.9C1057.7 562.7 1064.8 569.9 1064.8 578.6C1064.9 587.3 1057.7 594.5 1048.9 594.5ZM944.9 565.6C937.8 565.6 932 571.4 932 578.5C932 585.6 937.8 591.4 944.9 591.4H1048.9C1056 591.4 1061.8 585.6 1061.8 578.5C1061.8 571.4 1056 565.6 1048.9 565.6H944.9Z" fill="#2A599E"/>
<path d="M1000.5 583C1000.5 586.8 997.401 589.9 993.601 589.9H943.701C939.901 589.9 936.801 586.8 936.801 583C936.801 579.2 939.901 576.1 943.701 576.1H993.601C997.401 576 1000.5 579.1 1000.5 583Z" fill="#B4CCEB"/>
<path d="M1002.9 665.2C1002.9 669 999.8 672.1 996 672.1H946C942.2 672.1 939.1 669 939.1 665.2C939.1 661.4 942.2 658.3 946 658.3H995.9C999.8 658.3 1002.9 661.4 1002.9 665.2Z" fill="#B4CCEB"/>
<path d="M1382.9 629.4C1360.6 629.4 1345.5 628.4 1343.5 628.2L1345.6 599.6C1347.1 599.7 1616.6 596.3 1691.9 553.4C1682.6 546.6 1673.9 538.9 1666.3 530.5C1640 502 1628.9 471.3 1636.5 448.3C1643.2 428.2 1657.5 416.6 1675.9 416.6H1676C1704.3 416.6 1737.1 445.5 1749.1 481.1C1757.4 505.8 1754.5 529.4 1741.2 548.5C1762 557 1785.6 560.7 1809.7 554.7C1864.2 541.3 1907.1 481.8 1933.7 382.8L1961.4 390.2C1945.9 447.9 1924.8 493.7 1898.7 526.4C1875 556 1847.4 574.9 1816.6 582.5C1789.4 589.2 1760.1 586.8 1731.6 575.5C1727.4 573.8 1723.3 572 1719.2 570C1662.4 610.1 1437.1 629.4 1382.9 629.4ZM1676 445.2C1673.5 445.2 1667.7 445.2 1663.7 457.3C1660.3 467.6 1666.3 488.2 1687.3 511C1694.9 519.3 1704.5 527.6 1715.5 534.8C1727.7 519.6 1726 502.7 1721.8 490.1C1713.4 464.8 1690.2 445.2 1676 445.2Z" fill="#23387B"/>
<path d="M1786.6 573.6C1743.1 573.6 1704 548.8 1681.2 524.1C1659.3 500.4 1649.3 474.7 1655.2 456.9C1660.8 439.9 1671.4 435.3 1679.2 434.5C1696.9 432.6 1719.8 448.2 1733.6 471.6C1748.2 496.4 1748.7 522.9 1734.9 542.7C1734.1 543.8 1732.5 544.1 1731.4 543.3C1730.3 542.5 1730 540.9 1730.8 539.8C1749 513.7 1735.8 485.2 1729.3 474.1C1716.4 452.3 1695.6 437.7 1679.7 439.4C1670.4 440.4 1663.8 446.8 1659.9 458.4C1654.6 474.4 1664.1 498.2 1684.8 520.6C1711.3 549.2 1760.5 578.1 1812.1 565.4C1882.9 547.9 1919.7 462.5 1938.2 393.9C1938.6 392.6 1939.9 391.8 1941.3 392.1C1942.6 392.5 1943.4 393.8 1943.1 395.2C1928.7 448.6 1909.4 490.9 1885.5 520.7C1864.6 546.9 1840.3 563.6 1813.4 570.2C1804.3 572.6 1795.4 573.6 1786.6 573.6Z" fill="#2A599E"/>
<path d="M1360.6 614.2C1359.2 614.2 1358.1 613.1 1358.1 611.7C1358.1 610.3 1359.2 609.2 1360.6 609.2C1361.3 609.2 1429.4 608.5 1505.8 602.1C1576.1 596.3 1668.1 584.4 1706.8 560.8C1708 560.1 1709.5 560.5 1710.2 561.6C1710.9 562.7 1710.5 564.3 1709.4 565C1677.7 584.3 1609.3 598.4 1506.2 607C1429.5 613.4 1361.3 614.2 1360.6 614.2Z" fill="#2A599E"/>
<path d="M1282.8 673.4L1291 690.8L1274.5 695.5L1266.9 677.8" fill="white"/>
<path d="M1274.5 697C1273.9 697 1273.4 696.7 1273.1 696.1L1265.5 678.4C1265.2 677.6 1265.5 676.8 1266.3 676.4C1267.1 676.1 1267.9 676.4 1268.3 677.2L1275.4 693.7L1288.9 689.9L1281.5 674.1C1281.1 673.3 1281.5 672.5 1282.2 672.1C1282.9 671.7 1283.8 672.1 1284.2 672.8L1292.4 690.2C1292.6 690.6 1292.6 691.1 1292.4 691.5C1292.2 691.9 1291.9 692.2 1291.4 692.3L1274.9 697C1274.8 696.9 1274.7 697 1274.5 697Z" fill="#2A599E"/>
<path d="M1179.9 684.4L1184.5 702.7L1168.3 706.9L1167.6 685.8" fill="white"/>
<path d="M1168.3 708.4C1168 708.4 1167.7 708.3 1167.4 708.1C1167 707.8 1166.8 707.4 1166.8 706.9L1166.1 685.8C1166.1 685 1166.7 684.3 1167.6 684.3C1168.4 684.3 1169.1 684.9 1169.1 685.8L1169.7 705L1182.7 701.7L1178.5 684.8C1178.3 684 1178.8 683.2 1179.6 683C1180.4 682.8 1181.2 683.3 1181.4 684.1L1186 702.4C1186.2 703.2 1185.7 704 1184.9 704.2L1168.7 708.4C1168.5 708.4 1168.4 708.4 1168.3 708.4Z" fill="#2A599E"/>
<path d="M1196.8 466.2C1196.8 466.2 1218.9 479.5 1225.2 498.2C1231.4 516.9 1238 598.9 1248.3 612.6C1258.6 626.3 1292.1 671 1292.1 671L1266.4 685.8C1266.4 685.8 1228 633.3 1218.9 618.1C1209.9 602.9 1194.9 534.3 1194.9 534.3C1194.9 534.3 1175.6 587.4 1174.6 609.2C1173.7 631 1189.2 689.9 1189.2 689.9L1163.3 690.7C1163.3 690.7 1147.1 635.4 1145.5 606.8C1143.9 578.2 1163.9 494 1163.9 494" fill="#23387B"/>
<path d="M1113.2 514.2C1117.8 499.7 1120 482.8 1115.9 465.2C1104.2 415.2 1089.7 439 1089.7 452.6C1089.7 452.6 1094.5 480.9 1091.9 509.4C1095.8 512.1 1102.4 514.9 1113.2 514.2Z" fill="#B4CCEB"/>
<path d="M1109.9 515.8C1100.5 515.8 1094.5 513 1091.1 510.6C1090.7 510.3 1090.4 509.8 1090.5 509.2C1093 481.2 1088.3 453 1088.3 452.8C1088.3 452.7 1088.3 452.6 1088.3 452.5C1088.3 448.7 1089.4 444.2 1091.1 440.6C1093.2 436.3 1096 433.7 1099.1 433.4C1106.2 432.6 1112.4 443.2 1117.5 464.9C1121.2 480.7 1120.3 497.4 1114.8 514.7C1114.6 515.3 1114.1 515.7 1113.5 515.7C1112.2 515.7 1111 515.8 1109.9 515.8ZM1093.5 508.6C1096.9 510.8 1102.8 513.1 1112.1 512.7C1117.2 496.3 1117.9 480.4 1114.5 465.5C1112.9 458.4 1106.9 435.5 1099.4 436.3C1095.1 436.8 1091.3 445.7 1091.3 452.4C1091.6 454.5 1095.9 481.5 1093.5 508.6Z" fill="#2A599E"/>
<path d="M1092 509.3C1090.4 527 1086 544.7 1075.7 555.8L1088.3 559.1C1088.3 559.1 1104.8 540.7 1113.2 514.1C1102.4 514.9 1095.8 512.1 1092 509.3Z" fill="white"/>
<path d="M1088.3 560.6C1088.2 560.6 1088 560.6 1087.9 560.6L1075.3 557.3C1074.8 557.2 1074.4 556.8 1074.2 556.3C1074.1 555.8 1074.2 555.2 1074.5 554.9C1083.1 545.5 1088.5 530.2 1090.4 509.3C1090.4 508.8 1090.8 508.3 1091.3 508.1C1091.8 507.9 1092.4 507.9 1092.8 508.2C1096.2 510.7 1102.5 513.4 1113.1 512.7C1113.6 512.7 1114.1 512.9 1114.4 513.3C1114.7 513.7 1114.8 514.2 1114.6 514.7C1106.2 541.3 1089.6 560 1089.4 560.2C1089.2 560.5 1088.8 560.6 1088.3 560.6ZM1078.4 555L1087.8 557.4C1090.7 553.9 1103.6 537.8 1111.1 515.7C1102.7 515.9 1097 514 1093.2 511.9C1091.2 531 1086.2 545.5 1078.4 555Z" fill="#2A599E"/>
<path d="M1086.9 452.1C1086.9 452.1 1091.6 425 1120.1 428.7C1148.6 432.4 1196.8 466.1 1196.8 466.1C1196.8 466.1 1180 500.7 1165.9 501.2C1151.9 501.7 1086.9 474.1 1086.9 454" fill="#23387B"/>
<path d="M1077.6 557L1072.2 566.6L1061 576L1086 577.6L1083.7 570.1L1086.5 558.9" fill="#B4CCEB"/>
<path d="M1086 579.1L1060.9 577.5C1060.3 577.5 1059.8 577.1 1059.6 576.5C1059.4 575.9 1059.6 575.3 1060.1 574.9L1071.1 565.7L1076.3 556.4C1076.7 555.7 1077.6 555.4 1078.3 555.8C1079 556.2 1079.3 557.1 1078.9 557.8L1073.5 567.4C1073.4 567.6 1073.3 567.7 1073.2 567.8L1064.9 574.7L1084 575.9L1082.3 570.5C1082.2 570.2 1082.2 570 1082.3 569.7L1085.1 558.5C1085.3 557.7 1086.1 557.2 1086.9 557.4C1087.7 557.6 1088.2 558.4 1088 559.2L1085.3 570L1087.5 577.1C1087.6 577.6 1087.6 578.1 1087.2 578.5C1086.9 578.9 1086.5 579.1 1086 579.1Z" fill="#2A599E"/>
<path d="M1119 477.7C1119 477.7 1107.1 458 1111.8 446.5C1116.5 435 1120.9 434.2 1120.9 434.2C1120.9 434.2 1100.3 425.5 1096.1 443C1091.9 460.5 1107 472.5 1107 472.5L1119 477.7Z" fill="#B4CCEB"/>
<path d="M1124.1 473.2C1124.1 473.2 1106.6 435.9 1135.4 438.7C1159.5 441 1173 466.1 1168.9 472.5C1164.9 478.8 1124.1 473.2 1124.1 473.2Z" fill="#B4CCEB"/>
<path d="M1276.9 708.9L1278.4 706.3L1296.4 702.1L1298.8 706.8C1298.8 706.8 1246.9 721.4 1245.4 717.6C1244.9 716.4 1244.5 715.7 1244.5 715.1L1276.9 708.9Z" fill="#B4CCEB"/>
<path d="M1247.6 719.8C1244.6 719.8 1244.2 719 1243.9 718.3C1243.8 718 1243.6 717.7 1243.5 717.5C1243.1 716.7 1242.8 716 1242.8 715.2C1242.8 714.5 1243.3 713.8 1244 713.7L1275.8 707.6L1276.9 705.6C1277.1 705.2 1277.5 705 1277.9 704.9L1295.9 700.7C1296.6 700.5 1297.3 700.9 1297.6 701.5L1300 706.2C1300.2 706.6 1300.2 707.1 1300 707.5C1299.8 707.9 1299.5 708.2 1299 708.3C1298.9 708.3 1285.9 712 1272.8 715.1C1258.1 718.7 1251.1 719.8 1247.6 719.8ZM1246.5 716.7C1250.2 717.7 1274.2 712.1 1296.5 705.8L1295.5 703.7L1279.3 707.5L1278.2 709.5C1278 709.9 1277.6 710.2 1277.2 710.2L1246.4 716.1C1246.4 716.4 1246.4 716.5 1246.5 716.7Z" fill="#2A599E"/>
<path d="M1276.9 708.9L1244.4 715.1C1244.4 713.7 1241.9 712.6 1248.7 707C1252.4 703.9 1261 702.4 1263.7 699.6C1268.3 694.8 1270.2 689.3 1270.2 689.3C1270.2 689.3 1278.6 696.7 1282.3 694.4C1286 692.1 1290.3 689.9 1290.3 689.9L1296.4 702L1278.4 706.2L1276.9 708.9Z" fill="#B4CCEB"/>
<path d="M1244.4 716.6C1244.1 716.6 1243.7 716.5 1243.4 716.3C1243.1 716 1242.9 715.6 1242.9 715.2C1242.9 715.1 1242.8 715 1242.8 714.9C1241.9 712.5 1242.4 710.3 1247.7 705.9C1249.7 704.3 1252.8 703.1 1255.8 701.9C1258.6 700.9 1261.4 699.8 1262.6 698.6C1266.9 694.1 1268.8 688.9 1268.8 688.8C1269 688.3 1269.4 688 1269.8 687.8C1270.3 687.7 1270.8 687.8 1271.2 688.1C1274.3 690.8 1279.6 694.2 1281.5 693.1C1285.2 690.8 1289.5 688.7 1289.6 688.6C1290 688.4 1290.4 688.4 1290.7 688.5C1291.1 688.6 1291.4 688.9 1291.6 689.3L1297.7 701.4C1297.9 701.8 1297.9 702.3 1297.7 702.7C1297.5 703.1 1297.1 703.4 1296.7 703.5L1279.3 707.5L1278.2 709.5C1278 709.9 1277.6 710.2 1277.2 710.2L1244.7 716.4C1244.6 716.6 1244.5 716.6 1244.4 716.6ZM1270.8 691.7C1269.8 693.8 1267.9 697.4 1264.8 700.6C1263.2 702.3 1260.1 703.4 1256.9 704.7C1254.1 705.8 1251.3 706.8 1249.6 708.2C1245.8 711.4 1245.3 712.7 1245.4 713.4L1275.8 707.6L1276.9 705.6C1277.1 705.2 1277.5 705 1277.9 704.9L1294.1 701.1L1289.6 692C1288 692.8 1285.4 694.3 1283 695.7C1279.5 697.9 1273.7 694 1270.8 691.7Z" fill="#2A599E"/>
<path d="M1168.8 715.7L1170.7 713.4L1189.2 712.7L1190.6 717.8C1190.6 717.8 1136.9 722.4 1136.1 718.4C1135.8 717.1 1135.6 716.4 1135.7 715.7H1168.8Z" fill="#B4CCEB"/>
<path d="M1148.6 721.5C1135.3 721.5 1134.9 720 1134.7 718.7C1134.6 718.4 1134.6 718.1 1134.5 717.8C1134.3 717 1134.1 716.2 1134.3 715.5C1134.4 714.8 1135.1 714.3 1135.8 714.3H1168.2L1169.7 712.5C1170 712.2 1170.4 712 1170.8 712L1189.3 711.3C1190 711.3 1190.6 711.7 1190.8 712.4L1192.2 717.5C1192.3 717.9 1192.2 718.4 1192 718.8C1191.7 719.2 1191.3 719.4 1190.9 719.4C1190.8 719.4 1177.3 720.6 1163.9 721.2C1157.5 721.3 1152.5 721.5 1148.6 721.5ZM1137.6 717.6C1141 719.2 1165.7 718.3 1188.8 716.4L1188.2 714.2L1171.6 714.9L1170.1 716.7C1169.8 717 1169.4 717.2 1169 717.2H1137.6C1137.5 717.3 1137.5 717.5 1137.6 717.6Z" fill="#2A599E"/>
<path d="M1168.8 715.7H1135.7C1135.9 714.3 1133.7 712.8 1141.4 708.6C1145.6 706.3 1154.4 706.4 1157.5 704.1C1162.9 700.2 1165.9 695.2 1165.9 695.2C1165.9 695.2 1172.7 704 1176.8 702.5C1180.8 701 1185.5 699.6 1185.5 699.6L1189.2 712.7L1170.7 713.4L1168.8 715.7Z" fill="#B4CCEB"/>
<path d="M1135.8 717.2C1135.4 717.2 1134.9 717 1134.6 716.7C1134.3 716.4 1134.2 715.9 1134.3 715.5C1134.3 715.4 1134.3 715.3 1134.2 715.2C1133.8 712.7 1134.7 710.6 1140.7 707.3C1143 706.1 1146.2 705.5 1149.4 704.9C1152.3 704.4 1155.3 703.9 1156.7 702.9C1161.8 699.3 1164.6 694.5 1164.6 694.4C1164.8 694 1165.3 693.7 1165.8 693.7C1166.3 693.7 1166.8 693.9 1167.1 694.3C1169.6 697.5 1174.2 701.9 1176.3 701.1C1180.3 699.6 1185 698.2 1185.2 698.2C1185.6 698.1 1186 698.1 1186.3 698.3C1186.6 698.5 1186.9 698.8 1187 699.2L1190.7 712.3C1190.8 712.7 1190.7 713.2 1190.5 713.6C1190.2 714 1189.8 714.2 1189.3 714.2L1171.5 714.9L1170 716.7C1169.7 717 1169.3 717.2 1168.9 717.2H1135.8ZM1166.1 697.7C1164.7 699.6 1162.2 702.7 1158.5 705.3C1156.6 706.7 1153.4 707.2 1150 707.8C1147.1 708.3 1144.1 708.8 1142.2 709.8C1137.8 712.2 1137.2 713.4 1137.1 714.1H1168.1L1169.6 712.3C1169.9 712 1170.3 711.8 1170.7 711.8L1187.3 711.2L1184.6 701.4C1182.9 701.9 1180 702.8 1177.4 703.8C1173.5 705.3 1168.6 700.5 1166.1 697.7Z" fill="#2A599E"/>
<path d="M1094.2 438L1105.5 438.5C1105.5 438.5 1109.5 443.5 1108.7 448.8C1107.9 454 1104.5 456.8 1101 457.2C1097.4 457.6 1095.2 449.8 1095.2 449.8" fill="white"/>
<path d="M1100.7 458.8C1096.4 458.8 1094.1 451.7 1093.7 450.3C1093.5 449.5 1093.9 448.7 1094.7 448.4C1095.5 448.2 1096.3 448.6 1096.6 449.4C1097.4 452.1 1099.3 455.9 1100.8 455.8C1103.4 455.5 1106.4 453.5 1107.2 448.6C1107.8 444.9 1105.6 441.3 1104.7 440L1094.1 439.6C1093.3 439.6 1092.6 438.9 1092.7 438C1092.8 437.1 1093.4 436.5 1094.3 436.6L1105.6 437.1C1106 437.1 1106.4 437.3 1106.7 437.7C1106.9 437.9 1111.1 443.3 1110.2 449.2C1109.4 454.5 1105.8 458.3 1101.2 458.9C1101 458.8 1100.8 458.8 1100.7 458.8Z" fill="#2A599E"/>
<path d="M1073.4 449.6C1073.4 449.6 1087.7 478.3 1094 470.2C1100.2 462.1 1098.2 439 1098.2 439C1098.2 439 1085.9 437.1 1073.4 449.6Z" fill="white"/>
<path d="M1091.3 473.1C1091.1 473.1 1091 473.1 1090.8 473.1C1083.3 472.4 1073.1 452.5 1072 450.3C1071.7 449.7 1071.8 449 1072.3 448.6C1085.2 435.7 1097.8 437.5 1098.4 437.6C1099.1 437.7 1099.6 438.3 1099.7 439C1099.8 440 1101.7 462.8 1095.2 471.2C1093.9 472.7 1092.4 473.1 1091.3 473.1ZM1075.2 449.9C1079.3 457.9 1086.8 469.7 1091.1 470.1C1091.5 470.1 1092.1 470.1 1092.7 469.3C1097.7 462.8 1097 445.3 1096.7 440.4C1093.6 440.3 1084.5 441 1075.2 449.9Z" fill="#2A599E"/>
<path d="M1089.1 447.4L1093.9 450C1093.9 450 1092.8 447.3 1094.4 446.6C1096 445.9 1099.4 447.9 1098.5 451.4L1101.8 446.3L1098 436.6" fill="#23387B"/>
<path d="M1098.6 436.5C1098.6 436.5 1097.8 422.4 1084 424.3C1076 425.4 1059.6 439.3 1071.8 451.5C1071.8 451.4 1091.5 455.5 1098.6 436.5Z" fill="#23387B"/>
<path d="M1156.6 499.4C1156.6 499.4 1198.1 489.4 1196 466.2L1204.9 472.6C1204.9 472.6 1202 485.7 1192.8 493C1184.3 499.7 1172.7 503.2 1163 502.7L1156.6 499.4Z" fill="white"/>
<path d="M1165 504.3C1164.3 504.3 1163.6 504.3 1163 504.2C1162.8 504.2 1162.6 504.1 1162.4 504L1156 500.7C1155.4 500.4 1155.1 499.8 1155.2 499.2C1155.3 498.6 1155.7 498.1 1156.3 497.9C1156.7 497.8 1196.5 488 1194.6 466.3C1194.5 465.7 1194.8 465.2 1195.4 464.9C1196 464.6 1196.5 464.6 1197 465L1205.9 471.4C1206.4 471.7 1206.6 472.4 1206.5 472.9C1206.4 473.5 1203.4 486.7 1193.8 494.1C1185.6 500.5 1174.8 504.3 1165 504.3ZM1163.4 501.2C1172.9 501.6 1184 497.9 1191.9 491.8C1199.2 486.1 1202.4 476.3 1203.3 473.2L1197.6 469.1C1197 478 1190.2 486.2 1177.8 492.8C1171.3 496.3 1164.7 498.6 1160.7 499.8L1163.4 501.2Z" fill="#2A599E"/>
<path d="M1086.54 501.541L1084.09 513.9L1117.15 520.455L1119.6 508.095L1086.54 501.541Z" fill="#B4CCEB"/>
<path d="M1117.2 522C1117.1 522 1117 522 1116.9 522L1083.8 515.4C1083.4 515.3 1083.1 515.1 1082.8 514.8C1082.6 514.5 1082.5 514.1 1082.6 513.7L1085.1 501.3C1085.3 500.5 1086.1 500 1086.9 500.1L1120 506.7C1120.4 506.8 1120.7 507 1121 507.3C1121.2 507.6 1121.3 508 1121.2 508.4L1118.7 520.8C1118.5 521.5 1117.9 522 1117.2 522ZM1085.9 512.7L1116.1 518.7L1118 509.2L1087.8 503.2L1085.9 512.7Z" fill="#2A599E"/>
<path d="M1038.1 513.7C1031.4 513.7 1025.2 514.9 1020 516.9C1019.9 516.9 1019.8 516.9 1019.8 516.9C1016.3 516.9 1012.9 519.1 1009.7 523.1C1006.9 525.7 1005 528.8 1004.5 532C996.3 549.6 990.9 580.9 990.9 616.5C990.9 671.5 1003.8 716.1 1019.8 716.1C1021.3 716.1 1033.2 716.8 1038.2 716.8C1056.9 716.8 1072.1 707.6 1072.1 696.2V534.3C1072 522.9 1056.8 513.7 1038.1 513.7Z" fill="white"/>
<path d="M1038.1 718.3C1034.9 718.3 1028.8 718 1024.4 717.8C1022.2 717.7 1020.2 717.6 1019.7 717.6C1000.7 717.6 989.301 666.2 989.301 616.5C989.301 581.8 994.401 550.1 1002.9 531.5C1003.6 528.1 1005.5 524.8 1008.5 522C1012 517.6 1015.7 515.3 1019.7 515.3C1025.2 513.2 1031.6 512.1 1038.1 512.1C1057.6 512.1 1073.5 522 1073.5 534.2V696.1C1073.5 708.4 1057.6 718.3 1038.1 718.3ZM1019.8 518.4C1016.8 518.4 1013.8 520.3 1010.9 524C1010.9 524.1 1010.8 524.1 1010.7 524.2C1008.1 526.7 1006.4 529.5 1005.9 532.3C1005.9 532.4 1005.8 532.5 1005.8 532.7C997.401 550.9 992.401 582.2 992.401 616.6C992.401 669.8 1004.9 714.7 1019.8 714.7C1020.4 714.7 1022.1 714.8 1024.6 714.9C1029 715.1 1035 715.4 1038.1 715.4C1056 715.4 1070.5 706.8 1070.5 696.3V534.3C1070.5 523.7 1056 515.2 1038.1 515.2C1031.9 515.2 1025.8 516.3 1020.5 518.3C1020.3 518.4 1020.1 518.4 1019.9 518.4H1019.8Z" fill="#2A599E"/>
<path d="M1087.2 616.5C1087.2 671.5 1074.3 716.1 1058.3 716.1C1042.3 716.1 1029.4 671.5 1029.4 616.5C1029.4 561.5 1042.3 516.9 1058.3 516.9C1074.2 516.9 1087.2 561.5 1087.2 616.5Z" fill="#B4CCEB"/>
<path d="M1058.3 717.7C1039.3 717.7 1027.9 666.3 1027.9 616.6C1027.9 566.9 1039.3 515.5 1058.3 515.5C1077.3 515.5 1088.7 566.9 1088.7 616.6C1088.7 666.2 1077.3 717.7 1058.3 717.7ZM1058.3 518.4C1043.5 518.4 1030.9 563.3 1030.9 616.5C1030.9 669.7 1043.4 714.6 1058.3 714.6C1073.2 714.6 1085.7 669.7 1085.7 616.5C1085.7 563.3 1073.1 518.4 1058.3 518.4Z" fill="#2A599E"/>
<path d="M1216.3 615.6C1216.3 603.5 1226.1 593.6 1238.3 593.6H1342.3C1354.4 593.6 1364.3 603.4 1364.3 615.6C1364.3 627.7 1354.5 637.6 1342.3 637.6H1238.3C1226.1 637.6 1216.3 627.7 1216.3 615.6Z" fill="white"/>
<path d="M1342.3 639.1H1238.3C1225.4 639.1 1214.8 628.6 1214.8 615.6C1214.8 602.6 1225.3 592.1 1238.3 592.1H1342.3C1355.2 592.1 1365.8 602.6 1365.8 615.6C1365.8 628.6 1355.2 639.1 1342.3 639.1ZM1238.3 595.1C1227 595.1 1217.8 604.3 1217.8 615.6C1217.8 626.9 1227 636.1 1238.3 636.1H1342.3C1353.6 636.1 1362.8 626.9 1362.8 615.6C1362.8 604.3 1353.6 595.1 1342.3 595.1H1238.3Z" fill="#2A599E"/>
<path d="M1351 598.8C1350.3 608.6 1342.1 616.4 1332.1 616.4H1242.2C1238.3 616.4 1234.6 615.2 1231.6 613.1C1231.6 613.6 1231.5 614 1231.5 614.5C1231.5 625 1240 633.5 1250.5 633.5H1340.4C1350.9 633.5 1359.4 625 1359.4 614.5C1359.3 608 1356 602.2 1351 598.8Z" fill="#B4CCEB"/>
<path d="M1170.1 607.5C1170.1 584.8 1188.5 566.5 1211.1 566.5C1233.8 566.5 1252.1 584.9 1252.1 607.5V623.7C1252.1 646.4 1233.7 664.7 1211.1 664.7C1188.4 664.7 1170.1 646.3 1170.1 623.7V607.5Z" fill="white"/>
<path d="M1211.1 666.2C1187.6 666.2 1168.6 647.1 1168.6 623.7V607.5C1168.6 584 1187.7 565 1211.1 565C1234.6 565 1253.6 584.1 1253.6 607.5V623.7C1253.6 647.1 1234.5 666.2 1211.1 666.2ZM1211.1 568C1189.3 568 1171.6 585.7 1171.6 607.5V623.7C1171.6 645.5 1189.3 663.2 1211.1 663.2C1232.9 663.2 1250.6 645.5 1250.6 623.7V607.5C1250.6 585.7 1232.9 568 1211.1 568Z" fill="#2A599E"/>
<path d="M1228.2 639.4C1207.7 639.4 1191.2 622.8 1191.2 602.4V587.8C1191.2 582.7 1192.2 577.9 1194.1 573.4C1183 579.8 1175.5 591.8 1175.5 605.5V620.1C1175.5 640.6 1192.1 657.1 1212.5 657.1C1227.9 657.1 1241 647.7 1246.6 634.4C1241.2 637.7 1234.9 639.4 1228.2 639.4Z" fill="#B4CCEB"/>
<path d="M1164.3 538.2H1106.5H1082.3C1075.5 538.2 1069.1 539.7 1063.4 542.3C1047.9 575.8 1040.7 650.6 1063.4 689C1069.2 691.6 1075.6 693.1 1082.3 693.1H1106.5H1164.3C1189.8 693.1 1210.5 672.4 1210.5 646.9V584.5C1210.5 558.9 1189.8 538.2 1164.3 538.2Z" fill="white"/>
<path d="M1164.3 694.5H1082.2C1075.4 694.5 1068.8 693.1 1062.6 690.3C1062.3 690.2 1062.1 690 1061.9 689.7C1038.7 650.5 1046.5 574.5 1061.8 541.6C1062 541.3 1062.2 541 1062.5 540.9C1068.7 538.1 1075.3 536.7 1082.1 536.7H1164.2C1190.5 536.7 1211.9 558.1 1211.9 584.4V646.8C1212 673.1 1190.6 694.5 1164.3 694.5ZM1064.3 687.8C1070 690.3 1076 691.5 1082.2 691.5H1164.3C1189 691.5 1209 671.4 1209 646.8V584.4C1209 559.7 1188.9 539.7 1164.3 539.7H1082.2C1076 539.7 1070 540.9 1064.4 543.4C1049.6 575.9 1042.1 649.4 1064.3 687.8Z" fill="#2A599E"/>
<path d="M1193.6 664H1141.6H1119.8C1113.7 664 1108 662.7 1102.8 660.4C1085.9 631.7 1087.4 580.5 1096.4 546.7H1085C1078.9 546.7 1073.2 548 1068 550.4C1054 580.5 1047.6 647.7 1068 682.3C1073.2 684.6 1079 685.9 1085 685.9H1106.8H1158.8C1174.6 685.9 1188.4 677 1195.4 664C1194.8 664 1194.2 664 1193.6 664Z" fill="#B4CCEB"/>
<path d="M1146.6 509C1148.4 498.2 1149.1 474.2 1145.6 462.3C1136 429.9 1121.8 449.9 1121.8 461.9C1121.8 461.9 1123.4 484.7 1122.3 509.9C1128 510.4 1137 510.6 1146.6 509Z" fill="#B4CCEB"/>
<path d="M1130.8 511.7C1127.5 511.7 1124.6 511.6 1122.2 511.4C1121.4 511.3 1120.8 510.6 1120.8 509.8C1121.8 485 1120.3 462.2 1120.3 462V461.9C1120.3 454.2 1125.5 444.2 1132 443.3C1136.2 442.7 1142.2 445.4 1147.1 461.9C1150.6 473.7 1150 497.8 1148.1 509.2C1148 509.8 1147.5 510.3 1146.9 510.4C1141.2 511.4 1135.6 511.7 1130.8 511.7ZM1123.9 508.5C1129.4 508.8 1137.1 508.9 1145.3 507.7C1147 496.2 1147.5 473.8 1144.2 462.8C1140.9 451.7 1136.6 445.7 1132.4 446.3C1127.6 447 1123.3 455.6 1123.3 461.9C1123.5 463.1 1124.9 484.7 1123.9 508.5Z" fill="#2A599E"/>
<path d="M1122.4 509.9C1121.5 530.3 1118.9 554.5 1107 567.5L1116 570.1C1116 570.1 1140.9 543.2 1146.6 509C1137 510.6 1128 510.4 1122.4 509.9Z" fill="white"/>
<path d="M1116 571.6C1115.9 571.6 1115.7 571.6 1115.6 571.5L1106.6 568.9C1106.1 568.8 1105.7 568.4 1105.6 567.9C1105.5 567.4 1105.6 566.9 1105.9 566.5C1117.6 553.7 1120.1 529.5 1120.9 509.9C1120.9 509.5 1121.1 509.1 1121.4 508.8C1121.7 508.5 1122.1 508.4 1122.5 508.4C1128.3 508.8 1137.1 509 1146.4 507.5C1146.9 507.4 1147.4 507.6 1147.7 507.9C1148 508.2 1148.2 508.7 1148.1 509.2C1142.3 543.4 1117.4 570.8 1117.1 571C1116.8 571.4 1116.4 571.6 1116 571.6ZM1109.6 566.7L1115.5 568.4C1119.2 564.1 1139.1 540.2 1144.8 510.8C1136.8 511.9 1129.3 511.9 1123.8 511.5C1123 530.5 1120.4 553.3 1109.6 566.7Z" fill="#2A599E"/>
<path d="M1150.8 507.6H1116.7V521.9H1150.8V507.6Z" fill="#B4CCEB"/>
<path d="M1150.9 523.4H1116.8C1116 523.4 1115.3 522.7 1115.3 521.9V507.6C1115.3 506.8 1116 506.1 1116.8 506.1H1150.9C1151.7 506.1 1152.4 506.8 1152.4 507.6V521.9C1152.4 522.8 1151.7 523.4 1150.9 523.4ZM1118.2 520.4H1149.3V509.1H1118.2V520.4Z" fill="#2A599E"/>
<path d="M1117.8 567.2L1108 563.4C1108 563.4 1107.2 563.5 1106.5 563.8C1105.8 564.1 1106 566.5 1106 566.5C1106 566.5 1100.1 570.7 1097.3 575.2C1094.5 579.7 1088.8 582.9 1091 583.9C1093.3 584.9 1095.1 580.8 1096 581.8C1096.5 582.3 1095.1 586.1 1092.9 589.6C1090.7 593 1087.8 596 1089.5 596.4C1093 597.1 1099.6 586 1099.6 586C1099.6 586 1098.3 589.9 1096.6 593.9C1094.8 598.2 1092.8 602.6 1094.8 603.4C1096.6 604.1 1098.1 600.1 1100.2 596.4C1102.2 592.7 1104.8 589.3 1104.8 589.3C1104.8 589.3 1100.4 602.6 1102.3 601.9C1104.3 601.1 1108 589.2 1108.8 589.5C1109.6 589.8 1107.3 598.3 1108.8 598.1C1110.2 597.9 1114.7 583.5 1114.7 583.5C1114.7 583.5 1118.5 575.6 1116.9 570.5C1117.1 570.5 1119.5 568.5 1117.8 567.2Z" fill="#23387B"/>
<path d="M1226 487.2C1227.5 489.6 1226.8 492.7 1224.4 494.3L1212.8 501.8C1210.4 503.3 1207.3 502.6 1205.7 500.2L1190.5 476.5C1189 474.1 1189.7 471 1192.1 469.4L1203.7 461.9C1206.1 460.4 1209.2 461.1 1210.8 463.5L1226 487.2Z" fill="#B4CCEB"/>
<path d="M1210.1 504C1207.9 504 1205.8 502.9 1204.5 501L1189.3 477.3C1187.3 474.2 1188.2 470.1 1191.3 468.2L1202.9 460.7C1206 458.7 1210.1 459.6 1212 462.7L1227.2 486.4C1228.2 487.9 1228.5 489.7 1228.1 491.4C1227.7 493.1 1226.7 494.6 1225.2 495.6L1213.6 503.1C1212.5 503.7 1211.3 504 1210.1 504ZM1206.5 462.6C1205.8 462.6 1205.2 462.8 1204.6 463.2L1193 470.7C1191.3 471.8 1190.8 474 1191.9 475.7L1207.1 499.4C1208.2 501.1 1210.4 501.6 1212.1 500.5L1223.7 493C1224.5 492.5 1225.1 491.7 1225.3 490.7C1225.5 489.7 1225.3 488.8 1224.8 488L1209.6 464.3C1208.9 463.2 1207.7 462.6 1206.5 462.6Z" fill="#2A599E"/>
<path d="M1196.4 484.4C1196.4 484.4 1211.1 483.8 1217.3 472.9Z" fill="#B4CCEB"/>
<path d="M1196.4 485.9C1195.6 485.9 1194.9 485.3 1194.9 484.5C1194.9 483.7 1195.5 483 1196.3 482.9C1196.4 482.9 1210.2 482.2 1215.9 472.1C1216.3 471.4 1217.2 471.1 1217.9 471.5C1218.6 471.9 1218.9 472.8 1218.5 473.5C1212.1 485.1 1197.1 485.8 1196.4 485.9Z" fill="#2A599E"/>
<path d="M1190.3 395.5C1190.3 404.4 1183 411.7 1174.1 411.7H1120.1C1111.2 411.7 1103.9 404.4 1103.9 395.5C1103.9 386.6 1111.2 379.3 1120.1 379.3H1174.1C1183 379.3 1190.3 386.5 1190.3 395.5Z" fill="#23387B"/>
<path d="M1123.1 395.5H1103.9V411.6H1123.1V395.5Z" fill="#23387B"/>
<path d="M1131.5 397.4C1132.83 397.4 1133.9 396.326 1133.9 395C1133.9 393.675 1132.83 392.6 1131.5 392.6C1130.17 392.6 1129.1 393.675 1129.1 395C1129.1 396.326 1130.17 397.4 1131.5 397.4Z" fill="white"/>
<path d="M1147.1 397.4C1148.42 397.4 1149.5 396.326 1149.5 395C1149.5 393.675 1148.42 392.6 1147.1 392.6C1145.77 392.6 1144.7 393.675 1144.7 395C1144.7 396.326 1145.77 397.4 1147.1 397.4Z" fill="white"/>
<path d="M1162.7 397.4C1164.02 397.4 1165.1 396.326 1165.1 395C1165.1 393.675 1164.02 392.6 1162.7 392.6C1161.37 392.6 1160.3 393.675 1160.3 395C1160.3 396.326 1161.37 397.4 1162.7 397.4Z" fill="white"/>
<path d="M493.7 366.8H415.2C402.2 366.8 391.6 378.8 391.6 393.6C391.6 408.4 402.1 420.4 415.2 420.4H493.7C494.4 420.4 495.1 420.4 495.8 420.3H517.3V393.6C517.2 378.8 506.7 366.8 493.7 366.8Z" fill="#5B86C4"/>
<path d="M432.999 398.6H430.199L428.999 405.7H425.499L426.699 398.6H422.799V395.4H427.199L427.999 390.8H424.199V387.6H428.599L429.799 380.4H433.199L431.999 387.6H434.799L435.999 380.4H439.499L438.299 387.6H442.299V390.8H437.799L436.999 395.4H440.999V398.6H436.499L435.299 405.7H431.799L432.999 398.6ZM430.699 395.4H433.499L434.299 390.8H431.499L430.699 395.4Z" fill="white"/>
<path d="M456.999 398.6H454.199L452.999 405.7H449.499L450.699 398.6H446.799V395.4H451.199L451.999 390.8H448.199V387.6H452.599L453.799 380.4H457.199L455.999 387.6H458.799L459.999 380.4H463.499L462.299 387.6H466.299V390.8H461.799L460.999 395.4H464.999V398.6H460.499L459.299 405.7H455.799L456.999 398.6ZM454.699 395.4H457.499L458.299 390.8H455.499L454.699 395.4Z" fill="white"/>
<path d="M480.999 398.6H478.199L476.999 405.7H473.499L474.699 398.6H470.799V395.4H475.199L475.999 390.8H472.199V387.6H476.599L477.799 380.4H481.199L479.999 387.6H482.799L483.999 380.4H487.499L486.299 387.6H490.299V390.8H485.799L484.999 395.4H488.999V398.6H484.499L483.299 405.7H479.799L480.999 398.6ZM478.699 395.4H481.499L482.299 390.8H479.499L478.699 395.4Z" fill="white"/>
<path d="M824.801 211C824.801 197.2 824.801 183.5 824.801 169.7C824.801 168.8 824.701 169 825.501 169C834.701 169 843.801 169 853.001 169C853.701 169 853.701 169 853.701 169.7C853.701 173.1 853.701 176.5 853.701 179.9C853.701 180.5 853.801 180.5 853.201 180.5C847.801 180.5 842.301 180.5 836.901 180.5C836.801 180.5 836.701 180.5 836.601 180.5C836.301 180.5 836.201 180.6 836.201 180.9C836.201 181 836.201 181.1 836.201 181.2C836.201 190.9 836.101 200.7 836.201 210.4C836.301 220.6 836.201 230.9 836.301 241.1C836.301 241.2 836.301 241.3 836.301 241.4C836.301 241.6 836.401 241.7 836.601 241.7C836.701 241.7 836.901 241.7 837.001 241.7C842.401 241.7 847.801 241.7 853.301 241.7C854.101 241.7 853.901 241.6 854.001 242.3C854.001 245.7 854.001 249 854.001 252.4C854.001 252.5 854.001 252.6 854.001 252.7C854.001 252.9 853.901 253 853.701 253C853.601 253 853.401 253 853.301 253C844.101 253 835.001 253 825.801 253C825.701 253 825.601 253 825.501 253C825.101 253 825.101 253 825.101 252.6C825.101 252.5 825.101 252.3 825.101 252.2C824.801 238.5 824.801 224.8 824.801 211Z" fill="#5B86C4"/>
<path d="M853.501 254.6H853.401C853.401 254.6 853.301 254.6 853.201 254.6H853.001H825.201C824.001 254.6 823.301 253.9 823.301 252.7V252.4V252.3V169.6C823.301 169.2 823.301 168.6 823.801 168.1C824.301 167.6 824.901 167.6 825.301 167.6H825.601H853.101C854.601 167.6 855.301 168.3 855.301 169.8V180.2C855.301 180.5 855.301 181.1 854.801 181.6C854.301 182.1 853.701 182.1 853.401 182.1H853.301H837.801C837.801 184.8 837.801 187.5 837.801 190.2C837.801 196.8 837.801 203.7 837.801 210.5C837.901 216.4 837.801 222.3 837.801 228.1C837.801 232.2 837.801 236.3 837.801 240.3H853.401C853.801 240.3 854.401 240.3 854.901 240.8C855.401 241.3 855.401 241.9 855.401 242.2V242.4V249.8V252.6C855.401 253.2 855.301 253.7 854.901 254.1C854.601 254.3 854.201 254.6 853.501 254.6ZM826.301 170.5V251.5H852.301V249.7V243.2H836.701C836.601 243.2 836.601 243.2 836.501 243.2C836.001 243.2 835.501 243.1 835.101 242.7C834.901 242.5 834.601 242.1 834.601 241.3V241.1C834.601 236.7 834.601 232.3 834.601 227.9C834.601 222.2 834.601 216.2 834.601 210.4C834.501 203.6 834.601 196.8 834.601 190.1C834.601 187.1 834.601 184.2 834.601 181.2V181.1C834.501 180.2 834.901 179.7 835.101 179.5C835.301 179.3 835.801 178.9 836.601 179H836.801H852.201V170.5H826.301Z" fill="#2A599E"/>
<path d="M1095.2 211C1095.2 211.2 1095.2 211.5 1095.2 211.7C1095.2 225.2 1095.2 238.7 1095.2 252.2C1095.2 253 1095.3 252.9 1094.5 252.9C1085.3 252.9 1076.2 252.9 1067 252.9C1066.9 252.9 1066.8 252.9 1066.7 252.9C1066.4 252.9 1066.3 252.8 1066.3 252.5C1066.3 249 1066.3 245.5 1066.3 242C1066.3 241.7 1066.4 241.6 1066.7 241.6C1067.4 241.6 1068 241.6 1068.7 241.6C1073.5 241.6 1078.3 241.6 1083.1 241.6C1083.2 241.6 1083.3 241.6 1083.4 241.6C1084 241.6 1084 241.6 1084 241C1084 221 1084 201 1084 180.9C1084 180.8 1084 180.7 1084 180.6C1084 180.4 1083.9 180.3 1083.7 180.3C1083.5 180.3 1083.4 180.3 1083.2 180.3C1077.9 180.3 1072.6 180.3 1067.2 180.3C1067.1 180.3 1067 180.3 1066.9 180.3C1066.4 180.3 1066.4 180.3 1066.4 179.8C1066.4 176.4 1066.4 172.9 1066.4 169.5C1066.4 168.9 1066.3 168.9 1067 168.9C1075 168.9 1083 168.9 1091 168.9C1092.3 168.9 1093.6 168.9 1095 168.9C1095.3 168.9 1095.4 169 1095.4 169.3C1095.4 169.4 1095.4 169.5 1095.4 169.6C1095.4 183.1 1095.4 196.7 1095.4 210.2C1095.2 210.6 1095.2 210.8 1095.2 211Z" fill="#5B86C4"/>
<path d="M1066.5 254.5C1065.9 254.5 1065.5 254.3 1065.3 254.1C1064.9 253.7 1064.7 253.2 1064.7 252.6C1064.7 249.1 1064.7 245.6 1064.7 242.1C1064.7 241.5 1064.9 241.1 1065.2 240.7C1065.6 240.4 1066 240.2 1066.6 240.2C1067 240.2 1067.5 240.2 1067.9 240.2H1068.5H1082.2V182H1066.6C1065.3 182 1064.6 181.3 1064.6 180C1064.6 176.6 1064.6 173.1 1064.6 169.7V169.5C1064.6 169.2 1064.6 168.6 1065.1 168.1C1065.6 167.6 1066.2 167.6 1066.6 167.6H1066.7H1090.7H1091.8C1092.8 167.6 1093.7 167.6 1094.7 167.6C1095.3 167.6 1095.8 167.8 1096.2 168.2C1096.4 168.5 1096.7 169 1096.6 169.7V169.8V212.5V252.5C1096.6 252.9 1096.6 253.5 1096.1 254C1095.6 254.5 1095 254.5 1094.6 254.5H1094.4H1066.9H1066.7C1066.7 254.5 1066.6 254.5 1066.5 254.5ZM1067.7 251.5H1071.5H1093.6V209.6V170.7C1093 170.7 1092.4 170.7 1091.8 170.7H1090.7H1067.6C1067.6 173.5 1067.6 176.3 1067.6 179.1H1083.1C1083.2 179.1 1083.2 179.1 1083.3 179.1C1083.8 179.1 1084.3 179.3 1084.6 179.6C1084.9 179.9 1085.1 180.4 1085.1 181V241.3C1085.1 241.8 1085.1 242.4 1084.6 242.9C1084.1 243.4 1083.5 243.4 1083.1 243.4H1082.8H1067.8C1067.7 243.4 1067.6 243.4 1067.5 243.4C1067.7 246 1067.7 248.7 1067.7 251.5Z" fill="#2A599E"/>
<path d="M874.028 217.489L891.334 217.194C891.771 217.194 892.131 217.565 892.414 218.307C892.719 219.048 893.014 219.637 893.297 220.073C893.973 221.12 895.086 221.644 896.634 221.644C898.205 221.644 899.47 221.284 900.429 220.564C901.389 219.822 901.869 218.874 901.869 217.718C901.869 216.562 901.574 215.777 900.985 215.362C900.396 214.926 899.753 214.512 899.055 214.119C898.357 213.705 897.321 213.389 895.947 213.17C894.595 212.952 893.854 212.821 893.723 212.778H893.788L891.923 212.287C890.724 212.069 889.721 211.829 888.914 211.567C883.701 210.172 879.928 208.416 877.594 206.3C875.282 204.185 874.126 201.339 874.126 197.762C874.126 195.166 874.606 192.833 875.566 190.761C876.526 188.689 877.78 186.999 879.328 185.69C883.799 181.917 889.971 180.03 897.845 180.03C904.104 180.03 909.022 181.164 912.599 183.433H912.566C914.856 185.09 916.427 186.726 917.277 188.34C918.128 189.932 918.662 191.906 918.88 194.261L918.03 195.112C912.294 195.33 907.212 195.439 902.785 195.439C901.454 195.439 900.658 195.046 900.396 194.261C900.287 193.934 900.167 193.607 900.037 193.28C899.731 192.495 898.75 192.102 897.092 192.102H896.961C895.675 192.102 894.573 192.407 893.657 193.018C892.741 193.607 892.272 194.185 892.25 194.752C892.25 195.319 892.37 195.788 892.61 196.159C892.872 196.529 893.145 196.824 893.428 197.042C893.712 197.26 894.148 197.489 894.737 197.729C895.326 197.947 895.762 198.1 896.045 198.187C896.351 198.252 896.82 198.372 897.452 198.547L898.597 198.841C899.055 198.972 900.386 199.299 902.588 199.823C904.813 200.346 906.667 200.848 908.15 201.328V201.295C912.795 202.865 915.958 204.828 917.637 207.184C919.338 209.517 920.189 212.243 920.189 215.362C920.189 223.672 915.227 229.059 905.304 231.523C902.425 232.243 899.35 232.756 896.078 233.061C892.065 233.061 888.096 232.472 884.17 231.294C880.244 230.117 877.616 228.197 876.286 225.537C875.391 224.25 874.792 223.072 874.486 222.003C874.181 220.913 873.93 219.397 873.734 217.456C873.799 217.478 873.897 217.489 874.028 217.489ZM941.192 202.865C940.93 209.037 940.799 215.384 940.799 221.905V231.654H938.411L937.593 231.622L925.979 231.72C925.238 231.72 924.845 231.731 924.802 231.752C924.802 231.731 924.845 231.545 924.933 231.196V231L924.965 230.869C924.856 229.299 924.802 227.39 924.802 225.144L924.933 188.602L924.9 186.9V185.265L924.834 182.189C924.834 181.971 924.954 181.742 925.194 181.502H929.676L932.293 181.47C938.444 181.47 942.839 181.557 945.478 181.731C948.138 181.906 950.047 181.993 951.203 181.993C951.835 185.744 952.773 190.717 954.016 196.911L956.339 208.623H957.484L961.671 187.228C961.737 186.9 961.889 185.952 962.129 184.381C962.369 182.789 962.555 181.906 962.686 181.731H962.816L984.114 181.535L985.39 181.568H989.054C989.25 181.655 989.359 182.059 989.381 182.778L989.708 195.145C989.97 205.395 990.155 213.378 990.264 219.092C990.264 223.497 990.199 227.63 990.068 231.491C990.002 231.752 989.566 231.905 988.759 231.949L987.287 232.014C986.109 232.058 985.237 232.08 984.67 232.08H982.969C980.853 232.101 977.734 232.112 973.612 232.112C972.849 231.436 972.467 228.514 972.467 223.345L972.533 213.072V210.422C972.533 208.089 972.522 206.366 972.5 205.253L971.257 205.024C970.537 207.663 969.152 213.541 967.102 222.658L966.808 223.966C966.655 224.642 966.393 225.853 966.022 227.598C965.674 229.321 965.39 230.629 965.172 231.523C964.91 231.829 963.754 231.981 961.704 231.981H961.279L957.615 231.883L955.619 231.916H954.082L951.497 231.949H950.581C949.578 231.949 949.022 231.72 948.913 231.262L948.945 231.294L945.968 218.307C945.881 217.979 945.685 217.271 945.379 216.18C945.074 215.068 944.9 214.141 944.856 213.399L942.402 202.8L941.192 202.865ZM1045.09 229.103C1045.09 229.124 1045.11 229.168 1045.13 229.233L1045.03 229.495H1045.06V229.561C1045.06 229.604 1045.05 229.637 1045.03 229.659C1044 230.444 1041.5 231.164 1037.5 231.818C1033.53 232.472 1030.8 232.799 1029.29 232.799C1027.81 232.799 1026.98 232.788 1026.81 232.767L1025.14 232.865C1023.39 232.974 1022.39 233.028 1022.13 233.028C1012.97 233.028 1005.99 230.727 1001.19 226.125C996.415 221.524 994.026 214.992 994.026 206.529C994.026 198.045 996.6 191.611 1001.75 187.228C1006.92 182.844 1013.91 180.652 1022.72 180.652C1024.33 180.652 1026.32 180.805 1028.67 181.11C1031.05 181.415 1033.13 181.862 1034.92 182.451C1037.1 183.345 1038.97 184.643 1040.51 186.344C1042.08 188.024 1043.11 189.888 1043.59 191.938C1043.68 192.506 1043.77 193.4 1043.88 194.621C1044.01 195.821 1044.12 196.704 1044.21 197.271C1044.08 197.598 1043.61 197.762 1042.8 197.762L1026.19 197.467C1026.1 197.424 1025.99 197.129 1025.86 196.584V196.682C1025.47 194.916 1024.69 193.836 1023.54 193.443C1023.01 193.247 1022.32 193.149 1021.47 193.149C1020.62 193.149 1019.82 193.291 1019.05 193.574C1018.31 193.858 1017.69 194.25 1017.19 194.752C1016.69 195.254 1016.24 195.842 1015.85 196.519C1015.45 197.173 1015.16 197.882 1014.96 198.645C1014.77 199.408 1014.59 200.194 1014.44 201C1014.29 201.807 1014.19 202.604 1014.15 203.389C1014.12 204.174 1014.09 204.926 1014.05 205.646C1014.03 206.366 1014.03 206.965 1014.05 207.445C1014.07 207.903 1014.08 208.209 1014.08 208.361V210.619C1014.08 212.036 1014.15 213.029 1014.28 213.596C1014.41 214.141 1014.56 214.752 1014.73 215.428C1014.91 216.082 1015.12 216.584 1015.36 216.933C1016.21 218.132 1017.12 218.972 1018.1 219.452C1019.11 219.91 1020.66 220.139 1022.75 220.139C1024.87 220.139 1026.87 219.822 1028.77 219.19L1028.93 214.021L1026.58 213.825L1026.25 213.988H1022.85L1022.46 214.021L1021.64 213.17C1021.59 212.8 1021.57 212.211 1021.57 211.404V204.076C1021.57 203.705 1021.83 203.334 1022.36 202.963H1024.55C1026.45 202.963 1028.57 202.985 1030.93 203.029H1031.26C1033.39 203.072 1035.02 203.094 1036.13 203.094H1038.09L1038.85 203.062C1042.73 203.062 1044.94 203.312 1045.49 203.814L1045.09 228.645V229.103Z" fill="#163879"/>
</g>
<defs>
<clipPath id="clip0_2284_328">
<rect width="1920" height="747" fill="white"/>
</clipPath>
</defs>
</svg>
